<svg width="532" height="445" viewBox="0 0 532 445" fill="none" xmlns="http://www.w3.org/2000/svg">
<g clip-path="url(#clip0_123_2)">
<path d="M472.761 81.0934C476.197 84.562 479.634 88.0321 483.093 91.4807H483.026L483.884 92.3351C487.692 96.1231 491.483 99.9237 495.273 103.723C504.367 112.839 513.453 121.947 522.735 130.857C526.218 134.225 529.029 137.646 530.459 141.404C531.881 145.139 531.954 149.244 529.89 154.026C527.924 158.546 525.009 161.246 521.442 162.829C517.855 164.422 513.578 164.898 508.879 164.898C422.408 164.766 335.937 164.766 249.467 164.766H249.451H249.014H248.576H248.138H247.7H247.262H246.825H246.387H245.949H245.511H245.074H244.636H244.198H243.76H243.322H242.885H242.447H242.009H241.571H241.133H240.696H240.258H239.82H239.382H238.944H238.507H238.069H237.631H237.193H236.755H236.318H235.88H235.442H235.004H234.567H234.129H233.691H233.253H232.815H232.378H231.94H231.502H231.064H230.626H230.189H229.751H229.313H228.875H228.437H228H227.562H227.124H226.686H226.248H225.811H225.373H224.935H224.497H224.06H223.622H223.184H222.746H222.308H221.871H221.433H220.995H220.557H220.119H219.682H219.244H218.806H218.368H217.93H217.493H217.055H216.617H216.179H215.741H215.304H214.866H214.428H213.99H213.553H213.115H212.677H212.239H211.801H211.364H210.926H210.488H210.05H209.612H209.175H208.737H208.299H207.861H207.423H206.986H206.548H206.11H205.672H205.234H204.797H204.359H203.921H203.483H203.045H202.608H202.17H201.732H201.294H200.857H200.419H199.981H199.543H199.105H198.668H198.23H197.792H197.354H196.916H196.479H196.041H195.603H195.165H194.727H194.29H193.852H193.414H192.976H192.538H192.101H191.663H191.225H190.787H190.35H189.912H189.474H189.036H188.598H188.161H187.723H187.285H186.847H186.409H185.972H185.534H185.096H184.658H184.22H183.783H183.345H182.907H182.469H182.031H181.594H181.156H180.718H180.28H179.843H179.405H178.967H178.529H178.091H177.654H177.216H176.778H176.34H175.902H175.465H175.027H174.589H174.151H173.713H173.276H172.838H172.4H171.962H171.524H171.087H170.649H170.211H169.773H169.336H168.898H168.46H168.022H167.584H167.147H166.709H166.271H165.833H165.395H164.958H164.52H164.082H163.644H163.206H162.769H162.331H161.893H161.455H161.017H160.58H160.142H159.704H159.266H158.829H158.391H157.953H157.515H157.077H156.64H156.202H155.764H155.326H154.888H154.451H154.013H153.575H153.137H152.699H152.262H151.824H151.386H150.948H150.51H150.073H149.635H149.197H148.759H148.321H147.884H147.446H147.008H146.57H146.133H145.695H145.257H144.819H144.381H143.944H143.506H143.068H142.63H142.192H141.755H141.317H140.879H140.441H140.003H139.566H139.128H138.69H138.252H137.814H137.377H136.939H136.501H136.063H135.626H135.188H134.75H134.312H133.874H133.437H132.999H132.561H132.123H131.685H131.248H130.81H130.372H129.934H129.496H129.059H128.621H128.183H127.745H127.307H126.87H126.432H125.994H125.556H125.119H124.681H124.243H123.805H123.367H122.93H122.492H122.054H121.616H121.178H120.741H120.303H119.865H119.427H118.989H118.552H118.114H117.676H117.238H116.8H116.363H115.925H115.487H115.049H114.612H114.174H113.736H113.298H112.86H112.423H111.985H111.547H111.109H110.671H110.234H109.796H109.358H108.92H108.482H108.045H107.607H107.169H106.731H106.293H105.856H105.418H104.98H104.542H104.104H103.667H103.229H102.791H102.353H101.916H101.478H101.04H100.602H100.164H99.7266H99.2888H98.851H98.4132H97.9754H97.5376H97.0998H96.662H96.2242H95.7865H95.3487H94.9109H94.4731H94.0353H93.5975H93.1597H92.7219H92.2841H91.8463H91.4085H90.9707H90.533H90.0952H89.6574H89.2196H88.7818H88.344H87.9062H87.4684H87.0306H86.5928H86.155H85.7172H85.2794H84.8417H84.4039H83.9661H83.5283H83.0905H82.6527H82.2149H81.7771H81.3393H80.9015H80.4637H80.0259H79.5882H79.1504H78.7126H78.2748H77.837H77.3992H76.9614H76.5236H76.0858H75.648H75.2102H74.7724H74.3346H73.8969H73.4591H73.0213H72.5835H72.1457H71.7079H71.2701H70.8323H70.3945H69.9567H69.5189H69.0811H68.6433H68.2056H67.7678H67.33H66.8922H66.4544H66.0166H65.5788H65.141H64.7032H64.2654H63.8276H63.3898H62.9521H62.5143H62.0765H61.6387H61.2009H60.7631H60.3253H59.8875H59.4497H59.0119H58.5741H58.1363H57.6986H57.2608H56.823H56.3852H55.9474H55.5096H55.0718H54.634H54.1962H53.7584H53.3206H52.8828H52.445H52.0073H51.5695H51.1317H50.6939H50.2561H49.8183H49.3805H48.9427H48.5049H48.0671H47.6293H47.1915H46.7537H46.316H45.8782H45.4404H45.0026H44.5648H44.127H43.6892H43.2514H42.8136H42.3758H41.938H41.5002H41.0625H40.6247H40.1869H39.7491H39.3113H38.8735H38.4357H37.9979H37.5601H37.1223H36.6845H36.2467H35.8089H35.3712H34.9334H34.4956H34.0578H33.62H33.1822H32.7444H32.3066H31.8688H31.431H30.9932H30.5554H30.1177H29.6799H29.2421H28.8043H28.3665H27.9287H27.4909H27.0531H26.6153H26.1775H25.7397H25.3019C24.6509 164.766 23.9758 164.817 23.3139 164.875C23.1777 164.887 23.0422 164.899 22.9076 164.911C22.3809 164.958 21.8658 165.004 21.3623 165.03C20.083 165.095 19.0064 165.018 18.2166 164.569C17.1387 163.951 16.0367 163.352 14.9321 162.752C13.1173 161.766 11.2957 160.777 9.56394 159.691C6.79466 157.955 4.35354 156.028 2.72678 153.616L2.72488 153.613C-1.3254 147.694 0.399203 140.203 5.83725 134.728C9.89212 130.675 13.9455 126.619 17.9994 122.563C42.3468 98.2023 66.7112 73.8246 91.5126 49.8815C93.2851 48.1812 95.8628 46.8973 98.6948 46.0309C101.521 45.1665 104.561 44.7297 107.223 44.6972C213.582 44.3685 319.874 44.3685 426.232 44.7629H426.234C431.824 44.7629 438.645 48.043 442.94 51.9924L442.942 51.9939C453.181 61.3242 462.965 71.2026 472.761 81.0934Z" stroke="#E0FF63"/>
<path d="M393.897 444.262L461.687 376.816L461.687 376.815M393.897 444.262L357.529 237.566C385.645 265.065 413.507 292.817 441.385 320.586C448.356 327.529 455.327 334.473 462.304 341.414C476.177 355.217 476.111 363.104 462.04 377.17L461.687 376.815M393.897 444.262L386.355 436.758L335.718 386.379L285.081 335.999C277.617 328.572 271.84 324.698 265.996 324.647C260.149 324.596 254.419 328.373 247.052 335.67L247.051 335.67L246.853 335.867L246.655 336.064L246.457 336.261L246.26 336.457L246.062 336.654L245.864 336.851L245.666 337.048L245.468 337.245L245.271 337.441L245.073 337.638L244.875 337.835L244.677 338.032L244.479 338.229L244.282 338.425L244.084 338.622L243.886 338.819L243.688 339.016L243.49 339.213L243.293 339.409L243.095 339.606L242.897 339.803L242.699 340L242.501 340.197L242.304 340.393L242.106 340.59L241.908 340.787L241.71 340.984L241.512 341.181L241.315 341.377L241.117 341.574L240.919 341.771L240.721 341.968L240.523 342.165L240.326 342.361L240.128 342.558L239.93 342.755L239.732 342.952L239.534 343.149L239.337 343.345L239.139 343.542L238.941 343.739L238.743 343.936L238.545 344.133L238.348 344.329L238.15 344.526L237.952 344.723L237.754 344.92L237.556 345.117L237.359 345.313L237.161 345.51L236.963 345.707L236.765 345.904L236.567 346.1L236.37 346.297L236.172 346.494L235.974 346.691L235.776 346.888L235.578 347.084L235.381 347.281L235.183 347.478L234.985 347.675L234.787 347.872L234.589 348.068L234.392 348.265L234.194 348.462L233.996 348.659L233.798 348.856L233.6 349.052L233.403 349.249L233.205 349.446L233.007 349.643L232.809 349.84L232.611 350.036L232.414 350.233L232.216 350.43L232.018 350.627L231.82 350.824L231.622 351.02L231.425 351.217L231.227 351.414L231.029 351.611L230.831 351.808L230.633 352.004L230.436 352.201L230.238 352.398L230.04 352.595L229.842 352.792L229.644 352.988L229.447 353.185L229.249 353.382L229.051 353.579L228.853 353.776L228.655 353.972L228.458 354.169L228.26 354.366L228.062 354.563L227.864 354.759L227.666 354.956L227.469 355.153L227.271 355.35L227.073 355.547L226.875 355.743L226.677 355.94L226.48 356.137L226.282 356.334L226.084 356.531L225.886 356.727L225.688 356.924L225.491 357.121L225.293 357.318L225.095 357.515L224.897 357.711L224.699 357.908L224.502 358.105L224.304 358.302L224.106 358.499L223.908 358.695L223.71 358.892L223.513 359.089L223.315 359.286L223.117 359.483L222.919 359.679L222.721 359.876L222.524 360.073L222.326 360.27L222.128 360.467L221.93 360.663L221.732 360.86L221.535 361.057L221.337 361.254L221.139 361.451L220.941 361.647L220.743 361.844L220.546 362.041L220.348 362.238L220.15 362.435L219.952 362.631L219.754 362.828L219.557 363.025L219.359 363.222L219.161 363.419L218.963 363.615L218.765 363.812L218.568 364.009L218.37 364.206L218.172 364.402L217.974 364.599L217.776 364.796L217.579 364.993L217.381 365.19L217.183 365.386L216.985 365.583L216.787 365.78L216.59 365.977L216.392 366.174L216.194 366.37L215.996 366.567L215.798 366.764L215.601 366.961L215.403 367.158L215.205 367.354L215.007 367.551L214.809 367.748L214.612 367.945L214.414 368.142L214.216 368.338L214.018 368.535L213.82 368.732L213.623 368.929L213.425 369.126L213.227 369.322L213.029 369.519L212.831 369.716L212.634 369.913L212.436 370.11L212.238 370.306L212.04 370.503L211.842 370.7L211.645 370.897L211.447 371.094L211.249 371.29L211.051 371.487L210.853 371.684L210.656 371.881L210.458 372.077L210.26 372.274L210.062 372.471L209.864 372.668L209.667 372.865L209.469 373.061L209.271 373.258L209.073 373.455L208.875 373.652L208.678 373.849L208.48 374.045L208.282 374.242L208.084 374.439L207.886 374.636L207.689 374.833L207.491 375.029L207.293 375.226L207.095 375.423L206.897 375.62L206.7 375.817L206.502 376.013L206.304 376.21L206.106 376.407L205.908 376.604L205.711 376.801L205.513 376.997L205.315 377.194L205.117 377.391L204.919 377.588L204.722 377.785L204.524 377.981L204.326 378.178L204.128 378.375L203.93 378.572L203.733 378.769L203.535 378.965L203.337 379.162L203.139 379.359L202.941 379.556L202.744 379.753L202.546 379.949L202.348 380.146L202.15 380.343L201.952 380.54L201.755 380.737L201.557 380.933L201.359 381.13L201.161 381.327L200.963 381.524L200.766 381.72L200.568 381.917L200.37 382.114L200.172 382.311L199.974 382.508L199.777 382.704L199.579 382.901L199.381 383.098L199.183 383.295L198.985 383.492L198.788 383.688L198.59 383.885L198.392 384.082L198.194 384.279L197.996 384.476L197.799 384.672L197.601 384.869L197.403 385.066L197.205 385.263L197.007 385.46L196.81 385.656L196.612 385.853L196.414 386.05L196.216 386.247L196.018 386.444L195.821 386.64L195.623 386.837L195.425 387.034L195.227 387.231L195.029 387.428L194.832 387.624L194.634 387.821L194.436 388.018L194.238 388.215L194.04 388.412L193.843 388.608L193.645 388.805L193.447 389.002L193.249 389.199L193.051 389.396L192.854 389.592L192.656 389.789L192.458 389.986L192.26 390.183L192.062 390.38L191.865 390.576L191.667 390.773L191.469 390.97L191.271 391.167L191.073 391.363L190.876 391.56L190.678 391.757L190.48 391.954L190.282 392.151L190.084 392.347L189.887 392.544L189.689 392.741L189.491 392.938L189.293 393.135L189.095 393.331L188.898 393.528L188.7 393.725L188.502 393.922L188.304 394.119L188.106 394.315L187.909 394.512L187.711 394.709L187.513 394.906L187.315 395.103L187.117 395.299L186.92 395.496L186.722 395.693L186.524 395.89L186.326 396.087L186.128 396.283L185.931 396.48L185.733 396.677L185.535 396.874L185.337 397.071L185.139 397.267L184.942 397.464L184.744 397.661L184.546 397.858L184.348 398.055L184.15 398.251L183.953 398.448L183.755 398.645L183.557 398.842L183.359 399.039L183.161 399.235L182.964 399.432L182.766 399.629L182.568 399.826L182.37 400.022L182.172 400.219L181.975 400.416L181.777 400.613L181.579 400.81L181.381 401.006L181.183 401.203L180.986 401.4L180.788 401.597L180.59 401.794L180.392 401.99L180.194 402.187L179.997 402.384L179.799 402.581L179.601 402.778L179.403 402.974L179.205 403.171L179.008 403.368L178.81 403.565L178.612 403.762L178.414 403.958L178.216 404.155L178.019 404.352L177.821 404.549L177.623 404.746L177.425 404.942L177.227 405.139L177.03 405.336L176.832 405.533L176.634 405.73L176.436 405.926L176.238 406.123L176.041 406.32L175.843 406.517L175.645 406.714L175.447 406.91L175.249 407.107L175.052 407.304L174.854 407.501L174.656 407.698L174.458 407.894L174.26 408.091L174.063 408.288L173.865 408.485L173.667 408.682L173.469 408.878L173.271 409.075L173.074 409.272L172.876 409.469L172.678 409.665L172.48 409.862L172.282 410.059L172.085 410.256L171.887 410.453L171.689 410.649L171.491 410.846L171.293 411.043L171.096 411.24L170.898 411.437L170.7 411.633L170.502 411.83L170.304 412.027L170.107 412.224L169.909 412.421L169.711 412.617L169.513 412.814L169.315 413.011L169.118 413.208L168.92 413.405L168.722 413.601L168.524 413.798L168.326 413.995L168.129 414.192L167.931 414.389L167.733 414.585L167.535 414.782L167.337 414.979L167.14 415.176L166.942 415.373L166.744 415.569L166.546 415.766L166.348 415.963L166.151 416.16L165.953 416.357L165.755 416.553L165.557 416.75L165.359 416.947L165.162 417.144L164.964 417.34L164.766 417.537L164.568 417.734L164.37 417.931L164.173 418.128L163.975 418.324L163.777 418.521L163.579 418.718L163.381 418.915L163.184 419.112L162.986 419.308L162.788 419.505L162.59 419.702L162.392 419.899L162.195 420.096L161.997 420.292L161.799 420.489L161.601 420.686L161.403 420.883L161.206 421.08L161.008 421.276L160.81 421.473L160.612 421.67L160.414 421.867L160.217 422.064L160.019 422.26L159.821 422.457L159.623 422.654L159.425 422.851L159.228 423.048L159.03 423.244L158.832 423.441L158.634 423.638L158.436 423.835L158.239 424.032L158.041 424.228L157.843 424.425L157.645 424.622L157.447 424.819L157.25 425.016L157.052 425.212L156.854 425.409L156.656 425.606L156.458 425.803L156.261 426L156.063 426.196L155.865 426.393L155.667 426.59L155.469 426.787L155.272 426.983L155.074 427.18L154.876 427.377L154.678 427.574L154.48 427.771L154.283 427.967L154.085 428.164L153.887 428.361L153.689 428.558L153.491 428.755L153.294 428.951L153.096 429.148L152.898 429.345L152.7 429.542L152.502 429.739L152.305 429.935L152.107 430.132L151.909 430.329L151.711 430.526L151.513 430.723L151.316 430.919L151.118 431.116L150.92 431.313L150.722 431.51L150.524 431.707L150.327 431.903L150.129 432.1L149.931 432.297L149.733 432.494L149.535 432.691L149.338 432.887L149.14 433.084L148.942 433.281L148.744 433.478L148.546 433.675L148.349 433.871L148.151 434.068L147.953 434.265L147.755 434.462L147.557 434.659L147.36 434.855L147.162 435.052L146.964 435.249L146.766 435.446L146.568 435.643L146.371 435.839L146.173 436.036L145.975 436.233L145.777 436.43L138.433 443.737C137.805 443.228 137.205 442.752 136.63 442.297C134.963 440.975 133.51 439.823 132.213 438.533L132.213 438.532C110.94 417.434 89.603 396.271 68.398 375.042L68.3979 375.042C62.5474 369.188 59.7427 364.185 59.7744 359.246C59.8062 354.305 62.6777 349.266 68.596 343.345C75.2135 336.749 81.8261 330.151 88.438 323.553C117.074 294.979 145.695 266.42 174.622 238.121C177.955 234.868 183.904 232.61 188.674 232.611L188.678 232.61C240.469 232.216 292.193 232.15 343.983 232.545H343.987C348.409 232.545 353.967 234.856 357.182 237.925M461.687 376.815C468.717 369.789 472.112 364.427 472.151 359.19C472.191 353.956 468.881 348.663 461.952 341.769C454.974 334.827 448.002 327.882 441.031 320.939C413.153 293.171 385.294 265.422 357.182 237.925M461.687 376.815L357.182 237.925" stroke="#E0FF63"/>
</g>
<g clip-path="url(#clip1_123_2)">
<path d="M472.761 70.0934C476.197 73.562 479.634 77.0321 483.093 80.4807H483.026L483.884 81.3351C487.692 85.1231 491.483 88.9237 495.273 92.7231C504.367 101.839 513.453 110.947 522.735 119.857C526.218 123.225 529.029 126.646 530.459 130.404C531.881 134.139 531.954 138.244 529.89 143.026C527.924 147.546 525.009 150.246 521.442 151.829C517.855 153.422 513.578 153.898 508.879 153.898C422.408 153.766 335.937 153.766 249.467 153.766H249.451H249.014H248.576H248.138H247.7H247.262H246.825H246.387H245.949H245.511H245.074H244.636H244.198H243.76H243.322H242.885H242.447H242.009H241.571H241.133H240.696H240.258H239.82H239.382H238.944H238.507H238.069H237.631H237.193H236.755H236.318H235.88H235.442H235.004H234.567H234.129H233.691H233.253H232.815H232.378H231.94H231.502H231.064H230.626H230.189H229.751H229.313H228.875H228.437H228H227.562H227.124H226.686H226.248H225.811H225.373H224.935H224.497H224.06H223.622H223.184H222.746H222.308H221.871H221.433H220.995H220.557H220.119H219.682H219.244H218.806H218.368H217.93H217.493H217.055H216.617H216.179H215.741H215.304H214.866H214.428H213.99H213.553H213.115H212.677H212.239H211.801H211.364H210.926H210.488H210.05H209.612H209.175H208.737H208.299H207.861H207.423H206.986H206.548H206.11H205.672H205.234H204.797H204.359H203.921H203.483H203.045H202.608H202.17H201.732H201.294H200.857H200.419H199.981H199.543H199.105H198.668H198.23H197.792H197.354H196.916H196.479H196.041H195.603H195.165H194.727H194.29H193.852H193.414H192.976H192.538H192.101H191.663H191.225H190.787H190.35H189.912H189.474H189.036H188.598H188.161H187.723H187.285H186.847H186.409H185.972H185.534H185.096H184.658H184.22H183.783H183.345H182.907H182.469H182.031H181.594H181.156H180.718H180.28H179.843H179.405H178.967H178.529H178.091H177.654H177.216H176.778H176.34H175.902H175.465H175.027H174.589H174.151H173.713H173.276H172.838H172.4H171.962H171.524H171.087H170.649H170.211H169.773H169.336H168.898H168.46H168.022H167.584H167.147H166.709H166.271H165.833H165.395H164.958H164.52H164.082H163.644H163.206H162.769H162.331H161.893H161.455H161.017H160.58H160.142H159.704H159.266H158.829H158.391H157.953H157.515H157.077H156.64H156.202H155.764H155.326H154.888H154.451H154.013H153.575H153.137H152.699H152.262H151.824H151.386H150.948H150.51H150.073H149.635H149.197H148.759H148.321H147.884H147.446H147.008H146.57H146.133H145.695H145.257H144.819H144.381H143.944H143.506H143.068H142.63H142.192H141.755H141.317H140.879H140.441H140.003H139.566H139.128H138.69H138.252H137.814H137.377H136.939H136.501H136.063H135.626H135.188H134.75H134.312H133.874H133.437H132.999H132.561H132.123H131.685H131.248H130.81H130.372H129.934H129.496H129.059H128.621H128.183H127.745H127.307H126.87H126.432H125.994H125.556H125.119H124.681H124.243H123.805H123.367H122.93H122.492H122.054H121.616H121.178H120.741H120.303H119.865H119.427H118.989H118.552H118.114H117.676H117.238H116.8H116.363H115.925H115.487H115.049H114.612H114.174H113.736H113.298H112.86H112.423H111.985H111.547H111.109H110.671H110.234H109.796H109.358H108.92H108.482H108.045H107.607H107.169H106.731H106.293H105.856H105.418H104.98H104.542H104.104H103.667H103.229H102.791H102.353H101.916H101.478H101.04H100.602H100.164H99.7266H99.2888H98.851H98.4132H97.9754H97.5376H97.0998H96.662H96.2242H95.7865H95.3487H94.9109H94.4731H94.0353H93.5975H93.1597H92.7219H92.2841H91.8463H91.4085H90.9707H90.533H90.0952H89.6574H89.2196H88.7818H88.344H87.9062H87.4684H87.0306H86.5928H86.155H85.7172H85.2794H84.8417H84.4039H83.9661H83.5283H83.0905H82.6527H82.2149H81.7771H81.3393H80.9015H80.4637H80.0259H79.5882H79.1504H78.7126H78.2748H77.837H77.3992H76.9614H76.5236H76.0858H75.648H75.2102H74.7724H74.3346H73.8969H73.4591H73.0213H72.5835H72.1457H71.7079H71.2701H70.8323H70.3945H69.9567H69.5189H69.0811H68.6433H68.2056H67.7678H67.33H66.8922H66.4544H66.0166H65.5788H65.141H64.7032H64.2654H63.8276H63.3898H62.9521H62.5143H62.0765H61.6387H61.2009H60.7631H60.3253H59.8875H59.4497H59.0119H58.5741H58.1363H57.6986H57.2608H56.823H56.3852H55.9474H55.5096H55.0718H54.634H54.1962H53.7584H53.3206H52.8828H52.445H52.0073H51.5695H51.1317H50.6939H50.2561H49.8183H49.3805H48.9427H48.5049H48.0671H47.6293H47.1915H46.7537H46.316H45.8782H45.4404H45.0026H44.5648H44.127H43.6892H43.2514H42.8136H42.3758H41.938H41.5002H41.0625H40.6247H40.1869H39.7491H39.3113H38.8735H38.4357H37.9979H37.5601H37.1223H36.6845H36.2467H35.8089H35.3712H34.9334H34.4956H34.0578H33.62H33.1822H32.7444H32.3066H31.8688H31.431H30.9932H30.5554H30.1177H29.6799H29.2421H28.8043H28.3665H27.9287H27.4909H27.0531H26.6153H26.1775H25.7397H25.3019C24.6509 153.766 23.9758 153.817 23.3139 153.875C23.1777 153.887 23.0422 153.899 22.9076 153.911C22.3809 153.958 21.8658 154.004 21.3623 154.03C20.083 154.095 19.0064 154.018 18.2166 153.569C17.1387 152.951 16.0367 152.352 14.9321 151.752C13.1173 150.766 11.2957 149.777 9.56394 148.691C6.79466 146.955 4.35354 145.028 2.72678 142.616L2.72488 142.613C-1.3254 136.694 0.399203 129.203 5.83725 123.728C9.89212 119.675 13.9455 115.619 17.9994 111.563C42.3468 87.2023 66.7112 62.8246 91.5126 38.8815C93.2851 37.1812 95.8628 35.8973 98.6948 35.0309C101.521 34.1665 104.561 33.7297 107.223 33.6972C213.582 33.3685 319.874 33.3685 426.232 33.7629H426.234C431.824 33.7629 438.645 37.043 442.94 40.9924L442.942 40.9939C453.181 50.3242 462.965 60.2026 472.761 70.0934Z" stroke="#E0FF63"/>
<path d="M393.897 433.262L461.687 365.816L461.687 365.815M393.897 433.262L357.529 226.566C385.645 254.065 413.507 281.817 441.385 309.586C448.356 316.529 455.327 323.473 462.304 330.414C476.177 344.217 476.111 352.104 462.04 366.17L461.687 365.815M393.897 433.262L386.355 425.758L335.718 375.379L285.081 324.999C277.617 317.572 271.84 313.698 265.996 313.647C260.149 313.596 254.419 317.373 247.052 324.67L247.051 324.67L246.853 324.867L246.655 325.064L246.457 325.261L246.26 325.457L246.062 325.654L245.864 325.851L245.666 326.048L245.468 326.245L245.271 326.441L245.073 326.638L244.875 326.835L244.677 327.032L244.479 327.229L244.282 327.425L244.084 327.622L243.886 327.819L243.688 328.016L243.49 328.213L243.293 328.409L243.095 328.606L242.897 328.803L242.699 329L242.501 329.197L242.304 329.393L242.106 329.59L241.908 329.787L241.71 329.984L241.512 330.181L241.315 330.377L241.117 330.574L240.919 330.771L240.721 330.968L240.523 331.165L240.326 331.361L240.128 331.558L239.93 331.755L239.732 331.952L239.534 332.149L239.337 332.345L239.139 332.542L238.941 332.739L238.743 332.936L238.545 333.133L238.348 333.329L238.15 333.526L237.952 333.723L237.754 333.92L237.556 334.117L237.359 334.313L237.161 334.51L236.963 334.707L236.765 334.904L236.567 335.1L236.37 335.297L236.172 335.494L235.974 335.691L235.776 335.888L235.578 336.084L235.381 336.281L235.183 336.478L234.985 336.675L234.787 336.872L234.589 337.068L234.392 337.265L234.194 337.462L233.996 337.659L233.798 337.856L233.6 338.052L233.403 338.249L233.205 338.446L233.007 338.643L232.809 338.84L232.611 339.036L232.414 339.233L232.216 339.43L232.018 339.627L231.82 339.824L231.622 340.02L231.425 340.217L231.227 340.414L231.029 340.611L230.831 340.808L230.633 341.004L230.436 341.201L230.238 341.398L230.04 341.595L229.842 341.792L229.644 341.988L229.447 342.185L229.249 342.382L229.051 342.579L228.853 342.776L228.655 342.972L228.458 343.169L228.26 343.366L228.062 343.563L227.864 343.759L227.666 343.956L227.469 344.153L227.271 344.35L227.073 344.547L226.875 344.743L226.677 344.94L226.48 345.137L226.282 345.334L226.084 345.531L225.886 345.727L225.688 345.924L225.491 346.121L225.293 346.318L225.095 346.515L224.897 346.711L224.699 346.908L224.502 347.105L224.304 347.302L224.106 347.499L223.908 347.695L223.71 347.892L223.513 348.089L223.315 348.286L223.117 348.483L222.919 348.679L222.721 348.876L222.524 349.073L222.326 349.27L222.128 349.467L221.93 349.663L221.732 349.86L221.535 350.057L221.337 350.254L221.139 350.451L220.941 350.647L220.743 350.844L220.546 351.041L220.348 351.238L220.15 351.435L219.952 351.631L219.754 351.828L219.557 352.025L219.359 352.222L219.161 352.419L218.963 352.615L218.765 352.812L218.568 353.009L218.37 353.206L218.172 353.402L217.974 353.599L217.776 353.796L217.579 353.993L217.381 354.19L217.183 354.386L216.985 354.583L216.787 354.78L216.59 354.977L216.392 355.174L216.194 355.37L215.996 355.567L215.798 355.764L215.601 355.961L215.403 356.158L215.205 356.354L215.007 356.551L214.809 356.748L214.612 356.945L214.414 357.142L214.216 357.338L214.018 357.535L213.82 357.732L213.623 357.929L213.425 358.126L213.227 358.322L213.029 358.519L212.831 358.716L212.634 358.913L212.436 359.11L212.238 359.306L212.04 359.503L211.842 359.7L211.645 359.897L211.447 360.094L211.249 360.29L211.051 360.487L210.853 360.684L210.656 360.881L210.458 361.077L210.26 361.274L210.062 361.471L209.864 361.668L209.667 361.865L209.469 362.061L209.271 362.258L209.073 362.455L208.875 362.652L208.678 362.849L208.48 363.045L208.282 363.242L208.084 363.439L207.886 363.636L207.689 363.833L207.491 364.029L207.293 364.226L207.095 364.423L206.897 364.62L206.7 364.817L206.502 365.013L206.304 365.21L206.106 365.407L205.908 365.604L205.711 365.801L205.513 365.997L205.315 366.194L205.117 366.391L204.919 366.588L204.722 366.785L204.524 366.981L204.326 367.178L204.128 367.375L203.93 367.572L203.733 367.769L203.535 367.965L203.337 368.162L203.139 368.359L202.941 368.556L202.744 368.753L202.546 368.949L202.348 369.146L202.15 369.343L201.952 369.54L201.755 369.737L201.557 369.933L201.359 370.13L201.161 370.327L200.963 370.524L200.766 370.72L200.568 370.917L200.37 371.114L200.172 371.311L199.974 371.508L199.777 371.704L199.579 371.901L199.381 372.098L199.183 372.295L198.985 372.492L198.788 372.688L198.59 372.885L198.392 373.082L198.194 373.279L197.996 373.476L197.799 373.672L197.601 373.869L197.403 374.066L197.205 374.263L197.007 374.46L196.81 374.656L196.612 374.853L196.414 375.05L196.216 375.247L196.018 375.444L195.821 375.64L195.623 375.837L195.425 376.034L195.227 376.231L195.029 376.428L194.832 376.624L194.634 376.821L194.436 377.018L194.238 377.215L194.04 377.412L193.843 377.608L193.645 377.805L193.447 378.002L193.249 378.199L193.051 378.396L192.854 378.592L192.656 378.789L192.458 378.986L192.26 379.183L192.062 379.38L191.865 379.576L191.667 379.773L191.469 379.97L191.271 380.167L191.073 380.363L190.876 380.56L190.678 380.757L190.48 380.954L190.282 381.151L190.084 381.347L189.887 381.544L189.689 381.741L189.491 381.938L189.293 382.135L189.095 382.331L188.898 382.528L188.7 382.725L188.502 382.922L188.304 383.119L188.106 383.315L187.909 383.512L187.711 383.709L187.513 383.906L187.315 384.103L187.117 384.299L186.92 384.496L186.722 384.693L186.524 384.89L186.326 385.087L186.128 385.283L185.931 385.48L185.733 385.677L185.535 385.874L185.337 386.071L185.139 386.267L184.942 386.464L184.744 386.661L184.546 386.858L184.348 387.055L184.15 387.251L183.953 387.448L183.755 387.645L183.557 387.842L183.359 388.039L183.161 388.235L182.964 388.432L182.766 388.629L182.568 388.826L182.37 389.022L182.172 389.219L181.975 389.416L181.777 389.613L181.579 389.81L181.381 390.006L181.183 390.203L180.986 390.4L180.788 390.597L180.59 390.794L180.392 390.99L180.194 391.187L179.997 391.384L179.799 391.581L179.601 391.778L179.403 391.974L179.205 392.171L179.008 392.368L178.81 392.565L178.612 392.762L178.414 392.958L178.216 393.155L178.019 393.352L177.821 393.549L177.623 393.746L177.425 393.942L177.227 394.139L177.03 394.336L176.832 394.533L176.634 394.73L176.436 394.926L176.238 395.123L176.041 395.32L175.843 395.517L175.645 395.714L175.447 395.91L175.249 396.107L175.052 396.304L174.854 396.501L174.656 396.698L174.458 396.894L174.26 397.091L174.063 397.288L173.865 397.485L173.667 397.682L173.469 397.878L173.271 398.075L173.074 398.272L172.876 398.469L172.678 398.665L172.48 398.862L172.282 399.059L172.085 399.256L171.887 399.453L171.689 399.649L171.491 399.846L171.293 400.043L171.096 400.24L170.898 400.437L170.7 400.633L170.502 400.83L170.304 401.027L170.107 401.224L169.909 401.421L169.711 401.617L169.513 401.814L169.315 402.011L169.118 402.208L168.92 402.405L168.722 402.601L168.524 402.798L168.326 402.995L168.129 403.192L167.931 403.389L167.733 403.585L167.535 403.782L167.337 403.979L167.14 404.176L166.942 404.373L166.744 404.569L166.546 404.766L166.348 404.963L166.151 405.16L165.953 405.357L165.755 405.553L165.557 405.75L165.359 405.947L165.162 406.144L164.964 406.34L164.766 406.537L164.568 406.734L164.37 406.931L164.173 407.128L163.975 407.324L163.777 407.521L163.579 407.718L163.381 407.915L163.184 408.112L162.986 408.308L162.788 408.505L162.59 408.702L162.392 408.899L162.195 409.096L161.997 409.292L161.799 409.489L161.601 409.686L161.403 409.883L161.206 410.08L161.008 410.276L160.81 410.473L160.612 410.67L160.414 410.867L160.217 411.064L160.019 411.26L159.821 411.457L159.623 411.654L159.425 411.851L159.228 412.048L159.03 412.244L158.832 412.441L158.634 412.638L158.436 412.835L158.239 413.032L158.041 413.228L157.843 413.425L157.645 413.622L157.447 413.819L157.25 414.016L157.052 414.212L156.854 414.409L156.656 414.606L156.458 414.803L156.261 415L156.063 415.196L155.865 415.393L155.667 415.59L155.469 415.787L155.272 415.983L155.074 416.18L154.876 416.377L154.678 416.574L154.48 416.771L154.283 416.967L154.085 417.164L153.887 417.361L153.689 417.558L153.491 417.755L153.294 417.951L153.096 418.148L152.898 418.345L152.7 418.542L152.502 418.739L152.305 418.935L152.107 419.132L151.909 419.329L151.711 419.526L151.513 419.723L151.316 419.919L151.118 420.116L150.92 420.313L150.722 420.51L150.524 420.707L150.327 420.903L150.129 421.1L149.931 421.297L149.733 421.494L149.535 421.691L149.338 421.887L149.14 422.084L148.942 422.281L148.744 422.478L148.546 422.675L148.349 422.871L148.151 423.068L147.953 423.265L147.755 423.462L147.557 423.659L147.36 423.855L147.162 424.052L146.964 424.249L146.766 424.446L146.568 424.643L146.371 424.839L146.173 425.036L145.975 425.233L145.777 425.43L138.433 432.737C137.805 432.228 137.205 431.752 136.63 431.297C134.963 429.975 133.51 428.823 132.213 427.533L132.213 427.532C110.94 406.434 89.603 385.271 68.398 364.042L68.3979 364.042C62.5474 358.188 59.7427 353.185 59.7744 348.246C59.8062 343.305 62.6777 338.266 68.596 332.345C75.2135 325.749 81.8261 319.151 88.438 312.553C117.074 283.979 145.695 255.42 174.622 227.121C177.955 223.868 183.904 221.61 188.674 221.611L188.678 221.61C240.469 221.216 292.193 221.15 343.983 221.545H343.987C348.409 221.545 353.967 223.856 357.182 226.925M461.687 365.815C468.717 358.789 472.112 353.427 472.151 348.19C472.191 342.956 468.881 337.663 461.952 330.769C454.974 323.827 448.002 316.882 441.031 309.939C413.153 282.171 385.294 254.422 357.182 226.925M461.687 365.815L357.182 226.925" stroke="#E0FF63"/>
</g>
<g clip-path="url(#clip2_123_2)">
<path d="M472.761 48.0934C476.197 51.562 479.634 55.0321 483.093 58.4807H483.026L483.884 59.3351C487.692 63.1231 491.483 66.9237 495.273 70.7231C504.367 79.8386 513.453 88.947 522.735 97.8567C526.218 101.225 529.029 104.646 530.459 108.404C531.881 112.139 531.954 116.244 529.89 121.026C527.924 125.546 525.009 128.246 521.442 129.829C517.855 131.422 513.578 131.898 508.879 131.898C422.408 131.766 335.937 131.766 249.467 131.766H249.451H249.014H248.576H248.138H247.7H247.262H246.825H246.387H245.949H245.511H245.074H244.636H244.198H243.76H243.322H242.885H242.447H242.009H241.571H241.133H240.696H240.258H239.82H239.382H238.944H238.507H238.069H237.631H237.193H236.755H236.318H235.88H235.442H235.004H234.567H234.129H233.691H233.253H232.815H232.378H231.94H231.502H231.064H230.626H230.189H229.751H229.313H228.875H228.437H228H227.562H227.124H226.686H226.248H225.811H225.373H224.935H224.497H224.06H223.622H223.184H222.746H222.308H221.871H221.433H220.995H220.557H220.119H219.682H219.244H218.806H218.368H217.93H217.493H217.055H216.617H216.179H215.741H215.304H214.866H214.428H213.99H213.553H213.115H212.677H212.239H211.801H211.364H210.926H210.488H210.05H209.612H209.175H208.737H208.299H207.861H207.423H206.986H206.548H206.11H205.672H205.234H204.797H204.359H203.921H203.483H203.045H202.608H202.17H201.732H201.294H200.857H200.419H199.981H199.543H199.105H198.668H198.23H197.792H197.354H196.916H196.479H196.041H195.603H195.165H194.727H194.29H193.852H193.414H192.976H192.538H192.101H191.663H191.225H190.787H190.35H189.912H189.474H189.036H188.598H188.161H187.723H187.285H186.847H186.409H185.972H185.534H185.096H184.658H184.22H183.783H183.345H182.907H182.469H182.031H181.594H181.156H180.718H180.28H179.843H179.405H178.967H178.529H178.091H177.654H177.216H176.778H176.34H175.902H175.465H175.027H174.589H174.151H173.713H173.276H172.838H172.4H171.962H171.524H171.087H170.649H170.211H169.773H169.336H168.898H168.46H168.022H167.584H167.147H166.709H166.271H165.833H165.395H164.958H164.52H164.082H163.644H163.206H162.769H162.331H161.893H161.455H161.017H160.58H160.142H159.704H159.266H158.829H158.391H157.953H157.515H157.077H156.64H156.202H155.764H155.326H154.888H154.451H154.013H153.575H153.137H152.699H152.262H151.824H151.386H150.948H150.51H150.073H149.635H149.197H148.759H148.321H147.884H147.446H147.008H146.57H146.133H145.695H145.257H144.819H144.381H143.944H143.506H143.068H142.63H142.192H141.755H141.317H140.879H140.441H140.003H139.566H139.128H138.69H138.252H137.814H137.377H136.939H136.501H136.063H135.626H135.188H134.75H134.312H133.874H133.437H132.999H132.561H132.123H131.685H131.248H130.81H130.372H129.934H129.496H129.059H128.621H128.183H127.745H127.307H126.87H126.432H125.994H125.556H125.119H124.681H124.243H123.805H123.367H122.93H122.492H122.054H121.616H121.178H120.741H120.303H119.865H119.427H118.989H118.552H118.114H117.676H117.238H116.8H116.363H115.925H115.487H115.049H114.612H114.174H113.736H113.298H112.86H112.423H111.985H111.547H111.109H110.671H110.234H109.796H109.358H108.92H108.482H108.045H107.607H107.169H106.731H106.293H105.856H105.418H104.98H104.542H104.104H103.667H103.229H102.791H102.353H101.916H101.478H101.04H100.602H100.164H99.7266H99.2888H98.851H98.4132H97.9754H97.5376H97.0998H96.662H96.2242H95.7865H95.3487H94.9109H94.4731H94.0353H93.5975H93.1597H92.7219H92.2841H91.8463H91.4085H90.9707H90.533H90.0952H89.6574H89.2196H88.7818H88.344H87.9062H87.4684H87.0306H86.5928H86.155H85.7172H85.2794H84.8417H84.4039H83.9661H83.5283H83.0905H82.6527H82.2149H81.7771H81.3393H80.9015H80.4637H80.0259H79.5882H79.1504H78.7126H78.2748H77.837H77.3992H76.9614H76.5236H76.0858H75.648H75.2102H74.7724H74.3346H73.8969H73.4591H73.0213H72.5835H72.1457H71.7079H71.2701H70.8323H70.3945H69.9567H69.5189H69.0811H68.6433H68.2056H67.7678H67.33H66.8922H66.4544H66.0166H65.5788H65.141H64.7032H64.2654H63.8276H63.3898H62.9521H62.5143H62.0765H61.6387H61.2009H60.7631H60.3253H59.8875H59.4497H59.0119H58.5741H58.1363H57.6986H57.2608H56.823H56.3852H55.9474H55.5096H55.0718H54.634H54.1962H53.7584H53.3206H52.8828H52.445H52.0073H51.5695H51.1317H50.6939H50.2561H49.8183H49.3805H48.9427H48.5049H48.0671H47.6293H47.1915H46.7537H46.316H45.8782H45.4404H45.0026H44.5648H44.127H43.6892H43.2514H42.8136H42.3758H41.938H41.5002H41.0625H40.6247H40.1869H39.7491H39.3113H38.8735H38.4357H37.9979H37.5601H37.1223H36.6845H36.2467H35.8089H35.3712H34.9334H34.4956H34.0578H33.62H33.1822H32.7444H32.3066H31.8688H31.431H30.9932H30.5554H30.1177H29.6799H29.2421H28.8043H28.3665H27.9287H27.4909H27.0531H26.6153H26.1775H25.7397H25.3019C24.6509 131.766 23.9758 131.817 23.3139 131.875C23.1777 131.887 23.0422 131.899 22.9076 131.911C22.3809 131.958 21.8658 132.004 21.3623 132.03C20.083 132.095 19.0064 132.018 18.2166 131.569C17.1387 130.951 16.0367 130.352 14.9321 129.752C13.1173 128.766 11.2957 127.777 9.56394 126.691C6.79466 124.955 4.35354 123.028 2.72678 120.616L2.72488 120.613C-1.3254 114.694 0.399203 107.203 5.83725 101.728C9.89212 97.6746 13.9455 93.619 17.9994 89.5629C42.3468 65.2023 66.7112 40.8246 91.5126 16.8815C93.2851 15.1812 95.8628 13.8973 98.6948 13.0309C101.521 12.1665 104.561 11.7297 107.223 11.6972C213.582 11.3685 319.874 11.3685 426.232 11.7629H426.234C431.824 11.7629 438.645 15.043 442.94 18.9924L442.942 18.9939C453.181 28.3242 462.965 38.2026 472.761 48.0934Z" stroke="#E0FF63"/>
<path d="M393.897 411.262L461.687 343.816L461.687 343.815M393.897 411.262L357.529 204.566C385.645 232.065 413.507 259.817 441.385 287.586C448.356 294.529 455.327 301.473 462.304 308.414C476.177 322.217 476.111 330.104 462.04 344.17L461.687 343.815M393.897 411.262L386.355 403.758L335.718 353.379L285.081 302.999C277.617 295.572 271.84 291.698 265.996 291.647C260.149 291.596 254.419 295.373 247.052 302.67L247.051 302.67L246.853 302.867L246.655 303.064L246.457 303.261L246.26 303.457L246.062 303.654L245.864 303.851L245.666 304.048L245.468 304.245L245.271 304.441L245.073 304.638L244.875 304.835L244.677 305.032L244.479 305.229L244.282 305.425L244.084 305.622L243.886 305.819L243.688 306.016L243.49 306.213L243.293 306.409L243.095 306.606L242.897 306.803L242.699 307L242.501 307.197L242.304 307.393L242.106 307.59L241.908 307.787L241.71 307.984L241.512 308.181L241.315 308.377L241.117 308.574L240.919 308.771L240.721 308.968L240.523 309.165L240.326 309.361L240.128 309.558L239.93 309.755L239.732 309.952L239.534 310.149L239.337 310.345L239.139 310.542L238.941 310.739L238.743 310.936L238.545 311.133L238.348 311.329L238.15 311.526L237.952 311.723L237.754 311.92L237.556 312.117L237.359 312.313L237.161 312.51L236.963 312.707L236.765 312.904L236.567 313.1L236.37 313.297L236.172 313.494L235.974 313.691L235.776 313.888L235.578 314.084L235.381 314.281L235.183 314.478L234.985 314.675L234.787 314.872L234.589 315.068L234.392 315.265L234.194 315.462L233.996 315.659L233.798 315.856L233.6 316.052L233.403 316.249L233.205 316.446L233.007 316.643L232.809 316.84L232.611 317.036L232.414 317.233L232.216 317.43L232.018 317.627L231.82 317.824L231.622 318.02L231.425 318.217L231.227 318.414L231.029 318.611L230.831 318.808L230.633 319.004L230.436 319.201L230.238 319.398L230.04 319.595L229.842 319.792L229.644 319.988L229.447 320.185L229.249 320.382L229.051 320.579L228.853 320.776L228.655 320.972L228.458 321.169L228.26 321.366L228.062 321.563L227.864 321.759L227.666 321.956L227.469 322.153L227.271 322.35L227.073 322.547L226.875 322.743L226.677 322.94L226.48 323.137L226.282 323.334L226.084 323.531L225.886 323.727L225.688 323.924L225.491 324.121L225.293 324.318L225.095 324.515L224.897 324.711L224.699 324.908L224.502 325.105L224.304 325.302L224.106 325.499L223.908 325.695L223.71 325.892L223.513 326.089L223.315 326.286L223.117 326.483L222.919 326.679L222.721 326.876L222.524 327.073L222.326 327.27L222.128 327.467L221.93 327.663L221.732 327.86L221.535 328.057L221.337 328.254L221.139 328.451L220.941 328.647L220.743 328.844L220.546 329.041L220.348 329.238L220.15 329.435L219.952 329.631L219.754 329.828L219.557 330.025L219.359 330.222L219.161 330.419L218.963 330.615L218.765 330.812L218.568 331.009L218.37 331.206L218.172 331.402L217.974 331.599L217.776 331.796L217.579 331.993L217.381 332.19L217.183 332.386L216.985 332.583L216.787 332.78L216.59 332.977L216.392 333.174L216.194 333.37L215.996 333.567L215.798 333.764L215.601 333.961L215.403 334.158L215.205 334.354L215.007 334.551L214.809 334.748L214.612 334.945L214.414 335.142L214.216 335.338L214.018 335.535L213.82 335.732L213.623 335.929L213.425 336.126L213.227 336.322L213.029 336.519L212.831 336.716L212.634 336.913L212.436 337.11L212.238 337.306L212.04 337.503L211.842 337.7L211.645 337.897L211.447 338.094L211.249 338.29L211.051 338.487L210.853 338.684L210.656 338.881L210.458 339.077L210.26 339.274L210.062 339.471L209.864 339.668L209.667 339.865L209.469 340.061L209.271 340.258L209.073 340.455L208.875 340.652L208.678 340.849L208.48 341.045L208.282 341.242L208.084 341.439L207.886 341.636L207.689 341.833L207.491 342.029L207.293 342.226L207.095 342.423L206.897 342.62L206.7 342.817L206.502 343.013L206.304 343.21L206.106 343.407L205.908 343.604L205.711 343.801L205.513 343.997L205.315 344.194L205.117 344.391L204.919 344.588L204.722 344.785L204.524 344.981L204.326 345.178L204.128 345.375L203.93 345.572L203.733 345.769L203.535 345.965L203.337 346.162L203.139 346.359L202.941 346.556L202.744 346.753L202.546 346.949L202.348 347.146L202.15 347.343L201.952 347.54L201.755 347.737L201.557 347.933L201.359 348.13L201.161 348.327L200.963 348.524L200.766 348.72L200.568 348.917L200.37 349.114L200.172 349.311L199.974 349.508L199.777 349.704L199.579 349.901L199.381 350.098L199.183 350.295L198.985 350.492L198.788 350.688L198.59 350.885L198.392 351.082L198.194 351.279L197.996 351.476L197.799 351.672L197.601 351.869L197.403 352.066L197.205 352.263L197.007 352.46L196.81 352.656L196.612 352.853L196.414 353.05L196.216 353.247L196.018 353.444L195.821 353.64L195.623 353.837L195.425 354.034L195.227 354.231L195.029 354.428L194.832 354.624L194.634 354.821L194.436 355.018L194.238 355.215L194.04 355.412L193.843 355.608L193.645 355.805L193.447 356.002L193.249 356.199L193.051 356.396L192.854 356.592L192.656 356.789L192.458 356.986L192.26 357.183L192.062 357.38L191.865 357.576L191.667 357.773L191.469 357.97L191.271 358.167L191.073 358.363L190.876 358.56L190.678 358.757L190.48 358.954L190.282 359.151L190.084 359.347L189.887 359.544L189.689 359.741L189.491 359.938L189.293 360.135L189.095 360.331L188.898 360.528L188.7 360.725L188.502 360.922L188.304 361.119L188.106 361.315L187.909 361.512L187.711 361.709L187.513 361.906L187.315 362.103L187.117 362.299L186.92 362.496L186.722 362.693L186.524 362.89L186.326 363.087L186.128 363.283L185.931 363.48L185.733 363.677L185.535 363.874L185.337 364.071L185.139 364.267L184.942 364.464L184.744 364.661L184.546 364.858L184.348 365.055L184.15 365.251L183.953 365.448L183.755 365.645L183.557 365.842L183.359 366.039L183.161 366.235L182.964 366.432L182.766 366.629L182.568 366.826L182.37 367.022L182.172 367.219L181.975 367.416L181.777 367.613L181.579 367.81L181.381 368.006L181.183 368.203L180.986 368.4L180.788 368.597L180.59 368.794L180.392 368.99L180.194 369.187L179.997 369.384L179.799 369.581L179.601 369.778L179.403 369.974L179.205 370.171L179.008 370.368L178.81 370.565L178.612 370.762L178.414 370.958L178.216 371.155L178.019 371.352L177.821 371.549L177.623 371.746L177.425 371.942L177.227 372.139L177.03 372.336L176.832 372.533L176.634 372.73L176.436 372.926L176.238 373.123L176.041 373.32L175.843 373.517L175.645 373.714L175.447 373.91L175.249 374.107L175.052 374.304L174.854 374.501L174.656 374.698L174.458 374.894L174.26 375.091L174.063 375.288L173.865 375.485L173.667 375.682L173.469 375.878L173.271 376.075L173.074 376.272L172.876 376.469L172.678 376.665L172.48 376.862L172.282 377.059L172.085 377.256L171.887 377.453L171.689 377.649L171.491 377.846L171.293 378.043L171.096 378.24L170.898 378.437L170.7 378.633L170.502 378.83L170.304 379.027L170.107 379.224L169.909 379.421L169.711 379.617L169.513 379.814L169.315 380.011L169.118 380.208L168.92 380.405L168.722 380.601L168.524 380.798L168.326 380.995L168.129 381.192L167.931 381.389L167.733 381.585L167.535 381.782L167.337 381.979L167.14 382.176L166.942 382.373L166.744 382.569L166.546 382.766L166.348 382.963L166.151 383.16L165.953 383.357L165.755 383.553L165.557 383.75L165.359 383.947L165.162 384.144L164.964 384.34L164.766 384.537L164.568 384.734L164.37 384.931L164.173 385.128L163.975 385.324L163.777 385.521L163.579 385.718L163.381 385.915L163.184 386.112L162.986 386.308L162.788 386.505L162.59 386.702L162.392 386.899L162.195 387.096L161.997 387.292L161.799 387.489L161.601 387.686L161.403 387.883L161.206 388.08L161.008 388.276L160.81 388.473L160.612 388.67L160.414 388.867L160.217 389.064L160.019 389.26L159.821 389.457L159.623 389.654L159.425 389.851L159.228 390.048L159.03 390.244L158.832 390.441L158.634 390.638L158.436 390.835L158.239 391.032L158.041 391.228L157.843 391.425L157.645 391.622L157.447 391.819L157.25 392.016L157.052 392.212L156.854 392.409L156.656 392.606L156.458 392.803L156.261 393L156.063 393.196L155.865 393.393L155.667 393.59L155.469 393.787L155.272 393.983L155.074 394.18L154.876 394.377L154.678 394.574L154.48 394.771L154.283 394.967L154.085 395.164L153.887 395.361L153.689 395.558L153.491 395.755L153.294 395.951L153.096 396.148L152.898 396.345L152.7 396.542L152.502 396.739L152.305 396.935L152.107 397.132L151.909 397.329L151.711 397.526L151.513 397.723L151.316 397.919L151.118 398.116L150.92 398.313L150.722 398.51L150.524 398.707L150.327 398.903L150.129 399.1L149.931 399.297L149.733 399.494L149.535 399.691L149.338 399.887L149.14 400.084L148.942 400.281L148.744 400.478L148.546 400.675L148.349 400.871L148.151 401.068L147.953 401.265L147.755 401.462L147.557 401.659L147.36 401.855L147.162 402.052L146.964 402.249L146.766 402.446L146.568 402.643L146.371 402.839L146.173 403.036L145.975 403.233L145.777 403.43L138.433 410.737C137.805 410.228 137.205 409.752 136.63 409.297C134.963 407.975 133.51 406.823 132.213 405.533L132.213 405.532C110.94 384.434 89.603 363.271 68.398 342.042L68.3979 342.042C62.5474 336.188 59.7427 331.185 59.7744 326.246C59.8062 321.305 62.6777 316.266 68.596 310.345C75.2135 303.749 81.8261 297.151 88.438 290.553C117.074 261.979 145.695 233.42 174.622 205.121C177.955 201.868 183.904 199.61 188.674 199.611L188.678 199.61C240.469 199.216 292.193 199.15 343.983 199.545H343.987C348.409 199.545 353.967 201.856 357.182 204.925M461.687 343.815C468.717 336.789 472.112 331.427 472.151 326.19C472.191 320.956 468.881 315.663 461.952 308.769C454.974 301.827 448.002 294.882 441.031 287.939C413.153 260.171 385.294 232.422 357.182 204.925M461.687 343.815L357.182 204.925" stroke="#E0FF63"/>
</g>
<g clip-path="url(#clip3_123_2)">
<path d="M472.761 58.0934C476.197 61.562 479.634 65.0321 483.093 68.4807H483.026L483.884 69.3351C487.692 73.1231 491.483 76.9237 495.273 80.7231C504.367 89.8386 513.453 98.947 522.735 107.857C526.218 111.225 529.029 114.646 530.459 118.404C531.881 122.139 531.954 126.244 529.89 131.026C527.924 135.546 525.009 138.246 521.442 139.829C517.855 141.422 513.578 141.898 508.879 141.898C422.408 141.766 335.937 141.766 249.467 141.766H249.451H249.014H248.576H248.138H247.7H247.262H246.825H246.387H245.949H245.511H245.074H244.636H244.198H243.76H243.322H242.885H242.447H242.009H241.571H241.133H240.696H240.258H239.82H239.382H238.944H238.507H238.069H237.631H237.193H236.755H236.318H235.88H235.442H235.004H234.567H234.129H233.691H233.253H232.815H232.378H231.94H231.502H231.064H230.626H230.189H229.751H229.313H228.875H228.437H228H227.562H227.124H226.686H226.248H225.811H225.373H224.935H224.497H224.06H223.622H223.184H222.746H222.308H221.871H221.433H220.995H220.557H220.119H219.682H219.244H218.806H218.368H217.93H217.493H217.055H216.617H216.179H215.741H215.304H214.866H214.428H213.99H213.553H213.115H212.677H212.239H211.801H211.364H210.926H210.488H210.05H209.612H209.175H208.737H208.299H207.861H207.423H206.986H206.548H206.11H205.672H205.234H204.797H204.359H203.921H203.483H203.045H202.608H202.17H201.732H201.294H200.857H200.419H199.981H199.543H199.105H198.668H198.23H197.792H197.354H196.916H196.479H196.041H195.603H195.165H194.727H194.29H193.852H193.414H192.976H192.538H192.101H191.663H191.225H190.787H190.35H189.912H189.474H189.036H188.598H188.161H187.723H187.285H186.847H186.409H185.972H185.534H185.096H184.658H184.22H183.783H183.345H182.907H182.469H182.031H181.594H181.156H180.718H180.28H179.843H179.405H178.967H178.529H178.091H177.654H177.216H176.778H176.34H175.902H175.465H175.027H174.589H174.151H173.713H173.276H172.838H172.4H171.962H171.524H171.087H170.649H170.211H169.773H169.336H168.898H168.46H168.022H167.584H167.147H166.709H166.271H165.833H165.395H164.958H164.52H164.082H163.644H163.206H162.769H162.331H161.893H161.455H161.017H160.58H160.142H159.704H159.266H158.829H158.391H157.953H157.515H157.077H156.64H156.202H155.764H155.326H154.888H154.451H154.013H153.575H153.137H152.699H152.262H151.824H151.386H150.948H150.51H150.073H149.635H149.197H148.759H148.321H147.884H147.446H147.008H146.57H146.133H145.695H145.257H144.819H144.381H143.944H143.506H143.068H142.63H142.192H141.755H141.317H140.879H140.441H140.003H139.566H139.128H138.69H138.252H137.814H137.377H136.939H136.501H136.063H135.626H135.188H134.75H134.312H133.874H133.437H132.999H132.561H132.123H131.685H131.248H130.81H130.372H129.934H129.496H129.059H128.621H128.183H127.745H127.307H126.87H126.432H125.994H125.556H125.119H124.681H124.243H123.805H123.367H122.93H122.492H122.054H121.616H121.178H120.741H120.303H119.865H119.427H118.989H118.552H118.114H117.676H117.238H116.8H116.363H115.925H115.487H115.049H114.612H114.174H113.736H113.298H112.86H112.423H111.985H111.547H111.109H110.671H110.234H109.796H109.358H108.92H108.482H108.045H107.607H107.169H106.731H106.293H105.856H105.418H104.98H104.542H104.104H103.667H103.229H102.791H102.353H101.916H101.478H101.04H100.602H100.164H99.7266H99.2888H98.851H98.4132H97.9754H97.5376H97.0998H96.662H96.2242H95.7865H95.3487H94.9109H94.4731H94.0353H93.5975H93.1597H92.7219H92.2841H91.8463H91.4085H90.9707H90.533H90.0952H89.6574H89.2196H88.7818H88.344H87.9062H87.4684H87.0306H86.5928H86.155H85.7172H85.2794H84.8417H84.4039H83.9661H83.5283H83.0905H82.6527H82.2149H81.7771H81.3393H80.9015H80.4637H80.0259H79.5882H79.1504H78.7126H78.2748H77.837H77.3992H76.9614H76.5236H76.0858H75.648H75.2102H74.7724H74.3346H73.8969H73.4591H73.0213H72.5835H72.1457H71.7079H71.2701H70.8323H70.3945H69.9567H69.5189H69.0811H68.6433H68.2056H67.7678H67.33H66.8922H66.4544H66.0166H65.5788H65.141H64.7032H64.2654H63.8276H63.3898H62.9521H62.5143H62.0765H61.6387H61.2009H60.7631H60.3253H59.8875H59.4497H59.0119H58.5741H58.1363H57.6986H57.2608H56.823H56.3852H55.9474H55.5096H55.0718H54.634H54.1962H53.7584H53.3206H52.8828H52.445H52.0073H51.5695H51.1317H50.6939H50.2561H49.8183H49.3805H48.9427H48.5049H48.0671H47.6293H47.1915H46.7537H46.316H45.8782H45.4404H45.0026H44.5648H44.127H43.6892H43.2514H42.8136H42.3758H41.938H41.5002H41.0625H40.6247H40.1869H39.7491H39.3113H38.8735H38.4357H37.9979H37.5601H37.1223H36.6845H36.2467H35.8089H35.3712H34.9334H34.4956H34.0578H33.62H33.1822H32.7444H32.3066H31.8688H31.431H30.9932H30.5554H30.1177H29.6799H29.2421H28.8043H28.3665H27.9287H27.4909H27.0531H26.6153H26.1775H25.7397H25.3019C24.6509 141.766 23.9758 141.817 23.3139 141.875C23.1777 141.887 23.0422 141.899 22.9076 141.911C22.3809 141.958 21.8658 142.004 21.3623 142.03C20.083 142.095 19.0064 142.018 18.2166 141.569C17.1387 140.951 16.0367 140.352 14.9321 139.752C13.1173 138.766 11.2957 137.777 9.56394 136.691C6.79466 134.955 4.35354 133.028 2.72678 130.616L2.72488 130.613C-1.3254 124.694 0.399203 117.203 5.83725 111.728C9.89212 107.675 13.9455 103.619 17.9994 99.5629C42.3468 75.2023 66.7112 50.8246 91.5126 26.8815C93.2851 25.1812 95.8628 23.8973 98.6948 23.0309C101.521 22.1665 104.561 21.7297 107.223 21.6972C213.582 21.3685 319.874 21.3685 426.232 21.7629H426.234C431.824 21.7629 438.645 25.043 442.94 28.9924L442.942 28.9939C453.181 38.3242 462.965 48.2026 472.761 58.0934Z" stroke="#E0FF63"/>
<path d="M393.897 421.262L461.687 353.816L461.687 353.815M393.897 421.262L357.529 214.566C385.645 242.065 413.507 269.817 441.385 297.586C448.356 304.529 455.327 311.473 462.304 318.414C476.177 332.217 476.111 340.104 462.04 354.17L461.687 353.815M393.897 421.262L386.355 413.758L335.718 363.379L285.081 312.999C277.617 305.572 271.84 301.698 265.996 301.647C260.149 301.596 254.419 305.373 247.052 312.67L247.051 312.67L246.853 312.867L246.655 313.064L246.457 313.261L246.26 313.457L246.062 313.654L245.864 313.851L245.666 314.048L245.468 314.245L245.271 314.441L245.073 314.638L244.875 314.835L244.677 315.032L244.479 315.229L244.282 315.425L244.084 315.622L243.886 315.819L243.688 316.016L243.49 316.213L243.293 316.409L243.095 316.606L242.897 316.803L242.699 317L242.501 317.197L242.304 317.393L242.106 317.59L241.908 317.787L241.71 317.984L241.512 318.181L241.315 318.377L241.117 318.574L240.919 318.771L240.721 318.968L240.523 319.165L240.326 319.361L240.128 319.558L239.93 319.755L239.732 319.952L239.534 320.149L239.337 320.345L239.139 320.542L238.941 320.739L238.743 320.936L238.545 321.133L238.348 321.329L238.15 321.526L237.952 321.723L237.754 321.92L237.556 322.117L237.359 322.313L237.161 322.51L236.963 322.707L236.765 322.904L236.567 323.1L236.37 323.297L236.172 323.494L235.974 323.691L235.776 323.888L235.578 324.084L235.381 324.281L235.183 324.478L234.985 324.675L234.787 324.872L234.589 325.068L234.392 325.265L234.194 325.462L233.996 325.659L233.798 325.856L233.6 326.052L233.403 326.249L233.205 326.446L233.007 326.643L232.809 326.84L232.611 327.036L232.414 327.233L232.216 327.43L232.018 327.627L231.82 327.824L231.622 328.02L231.425 328.217L231.227 328.414L231.029 328.611L230.831 328.808L230.633 329.004L230.436 329.201L230.238 329.398L230.04 329.595L229.842 329.792L229.644 329.988L229.447 330.185L229.249 330.382L229.051 330.579L228.853 330.776L228.655 330.972L228.458 331.169L228.26 331.366L228.062 331.563L227.864 331.759L227.666 331.956L227.469 332.153L227.271 332.35L227.073 332.547L226.875 332.743L226.677 332.94L226.48 333.137L226.282 333.334L226.084 333.531L225.886 333.727L225.688 333.924L225.491 334.121L225.293 334.318L225.095 334.515L224.897 334.711L224.699 334.908L224.502 335.105L224.304 335.302L224.106 335.499L223.908 335.695L223.71 335.892L223.513 336.089L223.315 336.286L223.117 336.483L222.919 336.679L222.721 336.876L222.524 337.073L222.326 337.27L222.128 337.467L221.93 337.663L221.732 337.86L221.535 338.057L221.337 338.254L221.139 338.451L220.941 338.647L220.743 338.844L220.546 339.041L220.348 339.238L220.15 339.435L219.952 339.631L219.754 339.828L219.557 340.025L219.359 340.222L219.161 340.419L218.963 340.615L218.765 340.812L218.568 341.009L218.37 341.206L218.172 341.402L217.974 341.599L217.776 341.796L217.579 341.993L217.381 342.19L217.183 342.386L216.985 342.583L216.787 342.78L216.59 342.977L216.392 343.174L216.194 343.37L215.996 343.567L215.798 343.764L215.601 343.961L215.403 344.158L215.205 344.354L215.007 344.551L214.809 344.748L214.612 344.945L214.414 345.142L214.216 345.338L214.018 345.535L213.82 345.732L213.623 345.929L213.425 346.126L213.227 346.322L213.029 346.519L212.831 346.716L212.634 346.913L212.436 347.11L212.238 347.306L212.04 347.503L211.842 347.7L211.645 347.897L211.447 348.094L211.249 348.29L211.051 348.487L210.853 348.684L210.656 348.881L210.458 349.077L210.26 349.274L210.062 349.471L209.864 349.668L209.667 349.865L209.469 350.061L209.271 350.258L209.073 350.455L208.875 350.652L208.678 350.849L208.48 351.045L208.282 351.242L208.084 351.439L207.886 351.636L207.689 351.833L207.491 352.029L207.293 352.226L207.095 352.423L206.897 352.62L206.7 352.817L206.502 353.013L206.304 353.21L206.106 353.407L205.908 353.604L205.711 353.801L205.513 353.997L205.315 354.194L205.117 354.391L204.919 354.588L204.722 354.785L204.524 354.981L204.326 355.178L204.128 355.375L203.93 355.572L203.733 355.769L203.535 355.965L203.337 356.162L203.139 356.359L202.941 356.556L202.744 356.753L202.546 356.949L202.348 357.146L202.15 357.343L201.952 357.54L201.755 357.737L201.557 357.933L201.359 358.13L201.161 358.327L200.963 358.524L200.766 358.72L200.568 358.917L200.37 359.114L200.172 359.311L199.974 359.508L199.777 359.704L199.579 359.901L199.381 360.098L199.183 360.295L198.985 360.492L198.788 360.688L198.59 360.885L198.392 361.082L198.194 361.279L197.996 361.476L197.799 361.672L197.601 361.869L197.403 362.066L197.205 362.263L197.007 362.46L196.81 362.656L196.612 362.853L196.414 363.05L196.216 363.247L196.018 363.444L195.821 363.64L195.623 363.837L195.425 364.034L195.227 364.231L195.029 364.428L194.832 364.624L194.634 364.821L194.436 365.018L194.238 365.215L194.04 365.412L193.843 365.608L193.645 365.805L193.447 366.002L193.249 366.199L193.051 366.396L192.854 366.592L192.656 366.789L192.458 366.986L192.26 367.183L192.062 367.38L191.865 367.576L191.667 367.773L191.469 367.97L191.271 368.167L191.073 368.363L190.876 368.56L190.678 368.757L190.48 368.954L190.282 369.151L190.084 369.347L189.887 369.544L189.689 369.741L189.491 369.938L189.293 370.135L189.095 370.331L188.898 370.528L188.7 370.725L188.502 370.922L188.304 371.119L188.106 371.315L187.909 371.512L187.711 371.709L187.513 371.906L187.315 372.103L187.117 372.299L186.92 372.496L186.722 372.693L186.524 372.89L186.326 373.087L186.128 373.283L185.931 373.48L185.733 373.677L185.535 373.874L185.337 374.071L185.139 374.267L184.942 374.464L184.744 374.661L184.546 374.858L184.348 375.055L184.15 375.251L183.953 375.448L183.755 375.645L183.557 375.842L183.359 376.039L183.161 376.235L182.964 376.432L182.766 376.629L182.568 376.826L182.37 377.022L182.172 377.219L181.975 377.416L181.777 377.613L181.579 377.81L181.381 378.006L181.183 378.203L180.986 378.4L180.788 378.597L180.59 378.794L180.392 378.99L180.194 379.187L179.997 379.384L179.799 379.581L179.601 379.778L179.403 379.974L179.205 380.171L179.008 380.368L178.81 380.565L178.612 380.762L178.414 380.958L178.216 381.155L178.019 381.352L177.821 381.549L177.623 381.746L177.425 381.942L177.227 382.139L177.03 382.336L176.832 382.533L176.634 382.73L176.436 382.926L176.238 383.123L176.041 383.32L175.843 383.517L175.645 383.714L175.447 383.91L175.249 384.107L175.052 384.304L174.854 384.501L174.656 384.698L174.458 384.894L174.26 385.091L174.063 385.288L173.865 385.485L173.667 385.682L173.469 385.878L173.271 386.075L173.074 386.272L172.876 386.469L172.678 386.665L172.48 386.862L172.282 387.059L172.085 387.256L171.887 387.453L171.689 387.649L171.491 387.846L171.293 388.043L171.096 388.24L170.898 388.437L170.7 388.633L170.502 388.83L170.304 389.027L170.107 389.224L169.909 389.421L169.711 389.617L169.513 389.814L169.315 390.011L169.118 390.208L168.92 390.405L168.722 390.601L168.524 390.798L168.326 390.995L168.129 391.192L167.931 391.389L167.733 391.585L167.535 391.782L167.337 391.979L167.14 392.176L166.942 392.373L166.744 392.569L166.546 392.766L166.348 392.963L166.151 393.16L165.953 393.357L165.755 393.553L165.557 393.75L165.359 393.947L165.162 394.144L164.964 394.34L164.766 394.537L164.568 394.734L164.37 394.931L164.173 395.128L163.975 395.324L163.777 395.521L163.579 395.718L163.381 395.915L163.184 396.112L162.986 396.308L162.788 396.505L162.59 396.702L162.392 396.899L162.195 397.096L161.997 397.292L161.799 397.489L161.601 397.686L161.403 397.883L161.206 398.08L161.008 398.276L160.81 398.473L160.612 398.67L160.414 398.867L160.217 399.064L160.019 399.26L159.821 399.457L159.623 399.654L159.425 399.851L159.228 400.048L159.03 400.244L158.832 400.441L158.634 400.638L158.436 400.835L158.239 401.032L158.041 401.228L157.843 401.425L157.645 401.622L157.447 401.819L157.25 402.016L157.052 402.212L156.854 402.409L156.656 402.606L156.458 402.803L156.261 403L156.063 403.196L155.865 403.393L155.667 403.59L155.469 403.787L155.272 403.983L155.074 404.18L154.876 404.377L154.678 404.574L154.48 404.771L154.283 404.967L154.085 405.164L153.887 405.361L153.689 405.558L153.491 405.755L153.294 405.951L153.096 406.148L152.898 406.345L152.7 406.542L152.502 406.739L152.305 406.935L152.107 407.132L151.909 407.329L151.711 407.526L151.513 407.723L151.316 407.919L151.118 408.116L150.92 408.313L150.722 408.51L150.524 408.707L150.327 408.903L150.129 409.1L149.931 409.297L149.733 409.494L149.535 409.691L149.338 409.887L149.14 410.084L148.942 410.281L148.744 410.478L148.546 410.675L148.349 410.871L148.151 411.068L147.953 411.265L147.755 411.462L147.557 411.659L147.36 411.855L147.162 412.052L146.964 412.249L146.766 412.446L146.568 412.643L146.371 412.839L146.173 413.036L145.975 413.233L145.777 413.43L138.433 420.737C137.805 420.228 137.205 419.752 136.63 419.297C134.963 417.975 133.51 416.823 132.213 415.533L132.213 415.532C110.94 394.434 89.603 373.271 68.398 352.042L68.3979 352.042C62.5474 346.188 59.7427 341.185 59.7744 336.246C59.8062 331.305 62.6777 326.266 68.596 320.345C75.2135 313.749 81.8261 307.151 88.438 300.553C117.074 271.979 145.695 243.42 174.622 215.121C177.955 211.868 183.904 209.61 188.674 209.611L188.678 209.61C240.469 209.216 292.193 209.15 343.983 209.545H343.987C348.409 209.545 353.967 211.856 357.182 214.925M461.687 353.815C468.717 346.789 472.112 341.427 472.151 336.19C472.191 330.956 468.881 325.663 461.952 318.769C454.974 311.827 448.002 304.882 441.031 297.939C413.153 270.171 385.294 242.422 357.182 214.925M461.687 353.815L357.182 214.925" stroke="#E0FF63"/>
</g>
<g clip-path="url(#clip4_123_2)">
<path d="M472.761 37.0934C476.197 40.562 479.634 44.0321 483.093 47.4807H483.026L483.884 48.3351C487.692 52.1231 491.483 55.9237 495.273 59.7231C504.367 68.8386 513.453 77.947 522.735 86.8567C526.218 90.2247 529.029 93.6464 530.459 97.4045C531.881 101.139 531.954 105.244 529.89 110.026C527.924 114.546 525.009 117.246 521.442 118.829C517.855 120.422 513.578 120.898 508.879 120.898C422.408 120.766 335.937 120.766 249.467 120.766H249.451H249.014H248.576H248.138H247.7H247.262H246.825H246.387H245.949H245.511H245.074H244.636H244.198H243.76H243.322H242.885H242.447H242.009H241.571H241.133H240.696H240.258H239.82H239.382H238.944H238.507H238.069H237.631H237.193H236.755H236.318H235.88H235.442H235.004H234.567H234.129H233.691H233.253H232.815H232.378H231.94H231.502H231.064H230.626H230.189H229.751H229.313H228.875H228.437H228H227.562H227.124H226.686H226.248H225.811H225.373H224.935H224.497H224.06H223.622H223.184H222.746H222.308H221.871H221.433H220.995H220.557H220.119H219.682H219.244H218.806H218.368H217.93H217.493H217.055H216.617H216.179H215.741H215.304H214.866H214.428H213.99H213.553H213.115H212.677H212.239H211.801H211.364H210.926H210.488H210.05H209.612H209.175H208.737H208.299H207.861H207.423H206.986H206.548H206.11H205.672H205.234H204.797H204.359H203.921H203.483H203.045H202.608H202.17H201.732H201.294H200.857H200.419H199.981H199.543H199.105H198.668H198.23H197.792H197.354H196.916H196.479H196.041H195.603H195.165H194.727H194.29H193.852H193.414H192.976H192.538H192.101H191.663H191.225H190.787H190.35H189.912H189.474H189.036H188.598H188.161H187.723H187.285H186.847H186.409H185.972H185.534H185.096H184.658H184.22H183.783H183.345H182.907H182.469H182.031H181.594H181.156H180.718H180.28H179.843H179.405H178.967H178.529H178.091H177.654H177.216H176.778H176.34H175.902H175.465H175.027H174.589H174.151H173.713H173.276H172.838H172.4H171.962H171.524H171.087H170.649H170.211H169.773H169.336H168.898H168.46H168.022H167.584H167.147H166.709H166.271H165.833H165.395H164.958H164.52H164.082H163.644H163.206H162.769H162.331H161.893H161.455H161.017H160.58H160.142H159.704H159.266H158.829H158.391H157.953H157.515H157.077H156.64H156.202H155.764H155.326H154.888H154.451H154.013H153.575H153.137H152.699H152.262H151.824H151.386H150.948H150.51H150.073H149.635H149.197H148.759H148.321H147.884H147.446H147.008H146.57H146.133H145.695H145.257H144.819H144.381H143.944H143.506H143.068H142.63H142.192H141.755H141.317H140.879H140.441H140.003H139.566H139.128H138.69H138.252H137.814H137.377H136.939H136.501H136.063H135.626H135.188H134.75H134.312H133.874H133.437H132.999H132.561H132.123H131.685H131.248H130.81H130.372H129.934H129.496H129.059H128.621H128.183H127.745H127.307H126.87H126.432H125.994H125.556H125.119H124.681H124.243H123.805H123.367H122.93H122.492H122.054H121.616H121.178H120.741H120.303H119.865H119.427H118.989H118.552H118.114H117.676H117.238H116.8H116.363H115.925H115.487H115.049H114.612H114.174H113.736H113.298H112.86H112.423H111.985H111.547H111.109H110.671H110.234H109.796H109.358H108.92H108.482H108.045H107.607H107.169H106.731H106.293H105.856H105.418H104.98H104.542H104.104H103.667H103.229H102.791H102.353H101.916H101.478H101.04H100.602H100.164H99.7266H99.2888H98.851H98.4132H97.9754H97.5376H97.0998H96.662H96.2242H95.7865H95.3487H94.9109H94.4731H94.0353H93.5975H93.1597H92.7219H92.2841H91.8463H91.4085H90.9707H90.533H90.0952H89.6574H89.2196H88.7818H88.344H87.9062H87.4684H87.0306H86.5928H86.155H85.7172H85.2794H84.8417H84.4039H83.9661H83.5283H83.0905H82.6527H82.2149H81.7771H81.3393H80.9015H80.4637H80.0259H79.5882H79.1504H78.7126H78.2748H77.837H77.3992H76.9614H76.5236H76.0858H75.648H75.2102H74.7724H74.3346H73.8969H73.4591H73.0213H72.5835H72.1457H71.7079H71.2701H70.8323H70.3945H69.9567H69.5189H69.0811H68.6433H68.2056H67.7678H67.33H66.8922H66.4544H66.0166H65.5788H65.141H64.7032H64.2654H63.8276H63.3898H62.9521H62.5143H62.0765H61.6387H61.2009H60.7631H60.3253H59.8875H59.4497H59.0119H58.5741H58.1363H57.6986H57.2608H56.823H56.3852H55.9474H55.5096H55.0718H54.634H54.1962H53.7584H53.3206H52.8828H52.445H52.0073H51.5695H51.1317H50.6939H50.2561H49.8183H49.3805H48.9427H48.5049H48.0671H47.6293H47.1915H46.7537H46.316H45.8782H45.4404H45.0026H44.5648H44.127H43.6892H43.2514H42.8136H42.3758H41.938H41.5002H41.0625H40.6247H40.1869H39.7491H39.3113H38.8735H38.4357H37.9979H37.5601H37.1223H36.6845H36.2467H35.8089H35.3712H34.9334H34.4956H34.0578H33.62H33.1822H32.7444H32.3066H31.8688H31.431H30.9932H30.5554H30.1177H29.6799H29.2421H28.8043H28.3665H27.9287H27.4909H27.0531H26.6153H26.1775H25.7397H25.3019C24.6509 120.766 23.9758 120.817 23.3139 120.875C23.1777 120.887 23.0422 120.899 22.9076 120.911C22.3809 120.958 21.8658 121.004 21.3623 121.03C20.083 121.095 19.0064 121.018 18.2166 120.569C17.1387 119.951 16.0367 119.352 14.9321 118.752C13.1173 117.766 11.2957 116.777 9.56394 115.691C6.79466 113.955 4.35354 112.028 2.72678 109.616L2.72488 109.613C-1.3254 103.694 0.399203 96.203 5.83725 90.7276C9.89212 86.6746 13.9455 82.619 17.9994 78.5629C42.3468 54.2023 66.7112 29.8246 91.5126 5.88152C93.2851 4.18118 95.8628 2.89727 98.6948 2.03093C101.521 1.1665 104.561 0.729698 107.223 0.69717C213.582 0.368546 319.874 0.368549 426.232 0.762907H426.234C431.824 0.762907 438.645 4.043 442.94 7.99238L442.942 7.9939C453.181 17.3242 462.965 27.2026 472.761 37.0934Z" stroke="#E0FF63"/>
<path d="M393.897 400.262L461.687 332.816L461.687 332.815M393.897 400.262L357.529 193.566C385.645 221.065 413.507 248.817 441.385 276.586C448.356 283.529 455.327 290.473 462.304 297.414C476.177 311.217 476.111 319.104 462.04 333.17L461.687 332.815M393.897 400.262L386.355 392.758L335.718 342.379L285.081 291.999C277.617 284.572 271.84 280.698 265.996 280.647C260.149 280.596 254.419 284.373 247.052 291.67L247.051 291.67L246.853 291.867L246.655 292.064L246.457 292.261L246.26 292.457L246.062 292.654L245.864 292.851L245.666 293.048L245.468 293.245L245.271 293.441L245.073 293.638L244.875 293.835L244.677 294.032L244.479 294.229L244.282 294.425L244.084 294.622L243.886 294.819L243.688 295.016L243.49 295.213L243.293 295.409L243.095 295.606L242.897 295.803L242.699 296L242.501 296.197L242.304 296.393L242.106 296.59L241.908 296.787L241.71 296.984L241.512 297.181L241.315 297.377L241.117 297.574L240.919 297.771L240.721 297.968L240.523 298.165L240.326 298.361L240.128 298.558L239.93 298.755L239.732 298.952L239.534 299.149L239.337 299.345L239.139 299.542L238.941 299.739L238.743 299.936L238.545 300.133L238.348 300.329L238.15 300.526L237.952 300.723L237.754 300.92L237.556 301.117L237.359 301.313L237.161 301.51L236.963 301.707L236.765 301.904L236.567 302.1L236.37 302.297L236.172 302.494L235.974 302.691L235.776 302.888L235.578 303.084L235.381 303.281L235.183 303.478L234.985 303.675L234.787 303.872L234.589 304.068L234.392 304.265L234.194 304.462L233.996 304.659L233.798 304.856L233.6 305.052L233.403 305.249L233.205 305.446L233.007 305.643L232.809 305.84L232.611 306.036L232.414 306.233L232.216 306.43L232.018 306.627L231.82 306.824L231.622 307.02L231.425 307.217L231.227 307.414L231.029 307.611L230.831 307.808L230.633 308.004L230.436 308.201L230.238 308.398L230.04 308.595L229.842 308.792L229.644 308.988L229.447 309.185L229.249 309.382L229.051 309.579L228.853 309.776L228.655 309.972L228.458 310.169L228.26 310.366L228.062 310.563L227.864 310.759L227.666 310.956L227.469 311.153L227.271 311.35L227.073 311.547L226.875 311.743L226.677 311.94L226.48 312.137L226.282 312.334L226.084 312.531L225.886 312.727L225.688 312.924L225.491 313.121L225.293 313.318L225.095 313.515L224.897 313.711L224.699 313.908L224.502 314.105L224.304 314.302L224.106 314.499L223.908 314.695L223.71 314.892L223.513 315.089L223.315 315.286L223.117 315.483L222.919 315.679L222.721 315.876L222.524 316.073L222.326 316.27L222.128 316.467L221.93 316.663L221.732 316.86L221.535 317.057L221.337 317.254L221.139 317.451L220.941 317.647L220.743 317.844L220.546 318.041L220.348 318.238L220.15 318.435L219.952 318.631L219.754 318.828L219.557 319.025L219.359 319.222L219.161 319.419L218.963 319.615L218.765 319.812L218.568 320.009L218.37 320.206L218.172 320.402L217.974 320.599L217.776 320.796L217.579 320.993L217.381 321.19L217.183 321.386L216.985 321.583L216.787 321.78L216.59 321.977L216.392 322.174L216.194 322.37L215.996 322.567L215.798 322.764L215.601 322.961L215.403 323.158L215.205 323.354L215.007 323.551L214.809 323.748L214.612 323.945L214.414 324.142L214.216 324.338L214.018 324.535L213.82 324.732L213.623 324.929L213.425 325.126L213.227 325.322L213.029 325.519L212.831 325.716L212.634 325.913L212.436 326.11L212.238 326.306L212.04 326.503L211.842 326.7L211.645 326.897L211.447 327.094L211.249 327.29L211.051 327.487L210.853 327.684L210.656 327.881L210.458 328.077L210.26 328.274L210.062 328.471L209.864 328.668L209.667 328.865L209.469 329.061L209.271 329.258L209.073 329.455L208.875 329.652L208.678 329.849L208.48 330.045L208.282 330.242L208.084 330.439L207.886 330.636L207.689 330.833L207.491 331.029L207.293 331.226L207.095 331.423L206.897 331.62L206.7 331.817L206.502 332.013L206.304 332.21L206.106 332.407L205.908 332.604L205.711 332.801L205.513 332.997L205.315 333.194L205.117 333.391L204.919 333.588L204.722 333.785L204.524 333.981L204.326 334.178L204.128 334.375L203.93 334.572L203.733 334.769L203.535 334.965L203.337 335.162L203.139 335.359L202.941 335.556L202.744 335.753L202.546 335.949L202.348 336.146L202.15 336.343L201.952 336.54L201.755 336.737L201.557 336.933L201.359 337.13L201.161 337.327L200.963 337.524L200.766 337.72L200.568 337.917L200.37 338.114L200.172 338.311L199.974 338.508L199.777 338.704L199.579 338.901L199.381 339.098L199.183 339.295L198.985 339.492L198.788 339.688L198.59 339.885L198.392 340.082L198.194 340.279L197.996 340.476L197.799 340.672L197.601 340.869L197.403 341.066L197.205 341.263L197.007 341.46L196.81 341.656L196.612 341.853L196.414 342.05L196.216 342.247L196.018 342.444L195.821 342.64L195.623 342.837L195.425 343.034L195.227 343.231L195.029 343.428L194.832 343.624L194.634 343.821L194.436 344.018L194.238 344.215L194.04 344.412L193.843 344.608L193.645 344.805L193.447 345.002L193.249 345.199L193.051 345.396L192.854 345.592L192.656 345.789L192.458 345.986L192.26 346.183L192.062 346.38L191.865 346.576L191.667 346.773L191.469 346.97L191.271 347.167L191.073 347.363L190.876 347.56L190.678 347.757L190.48 347.954L190.282 348.151L190.084 348.347L189.887 348.544L189.689 348.741L189.491 348.938L189.293 349.135L189.095 349.331L188.898 349.528L188.7 349.725L188.502 349.922L188.304 350.119L188.106 350.315L187.909 350.512L187.711 350.709L187.513 350.906L187.315 351.103L187.117 351.299L186.92 351.496L186.722 351.693L186.524 351.89L186.326 352.087L186.128 352.283L185.931 352.48L185.733 352.677L185.535 352.874L185.337 353.071L185.139 353.267L184.942 353.464L184.744 353.661L184.546 353.858L184.348 354.055L184.15 354.251L183.953 354.448L183.755 354.645L183.557 354.842L183.359 355.039L183.161 355.235L182.964 355.432L182.766 355.629L182.568 355.826L182.37 356.022L182.172 356.219L181.975 356.416L181.777 356.613L181.579 356.81L181.381 357.006L181.183 357.203L180.986 357.4L180.788 357.597L180.59 357.794L180.392 357.99L180.194 358.187L179.997 358.384L179.799 358.581L179.601 358.778L179.403 358.974L179.205 359.171L179.008 359.368L178.81 359.565L178.612 359.762L178.414 359.958L178.216 360.155L178.019 360.352L177.821 360.549L177.623 360.746L177.425 360.942L177.227 361.139L177.03 361.336L176.832 361.533L176.634 361.73L176.436 361.926L176.238 362.123L176.041 362.32L175.843 362.517L175.645 362.714L175.447 362.91L175.249 363.107L175.052 363.304L174.854 363.501L174.656 363.698L174.458 363.894L174.26 364.091L174.063 364.288L173.865 364.485L173.667 364.682L173.469 364.878L173.271 365.075L173.074 365.272L172.876 365.469L172.678 365.665L172.48 365.862L172.282 366.059L172.085 366.256L171.887 366.453L171.689 366.649L171.491 366.846L171.293 367.043L171.096 367.24L170.898 367.437L170.7 367.633L170.502 367.83L170.304 368.027L170.107 368.224L169.909 368.421L169.711 368.617L169.513 368.814L169.315 369.011L169.118 369.208L168.92 369.405L168.722 369.601L168.524 369.798L168.326 369.995L168.129 370.192L167.931 370.389L167.733 370.585L167.535 370.782L167.337 370.979L167.14 371.176L166.942 371.373L166.744 371.569L166.546 371.766L166.348 371.963L166.151 372.16L165.953 372.357L165.755 372.553L165.557 372.75L165.359 372.947L165.162 373.144L164.964 373.34L164.766 373.537L164.568 373.734L164.37 373.931L164.173 374.128L163.975 374.324L163.777 374.521L163.579 374.718L163.381 374.915L163.184 375.112L162.986 375.308L162.788 375.505L162.59 375.702L162.392 375.899L162.195 376.096L161.997 376.292L161.799 376.489L161.601 376.686L161.403 376.883L161.206 377.08L161.008 377.276L160.81 377.473L160.612 377.67L160.414 377.867L160.217 378.064L160.019 378.26L159.821 378.457L159.623 378.654L159.425 378.851L159.228 379.048L159.03 379.244L158.832 379.441L158.634 379.638L158.436 379.835L158.239 380.032L158.041 380.228L157.843 380.425L157.645 380.622L157.447 380.819L157.25 381.016L157.052 381.212L156.854 381.409L156.656 381.606L156.458 381.803L156.261 382L156.063 382.196L155.865 382.393L155.667 382.59L155.469 382.787L155.272 382.983L155.074 383.18L154.876 383.377L154.678 383.574L154.48 383.771L154.283 383.967L154.085 384.164L153.887 384.361L153.689 384.558L153.491 384.755L153.294 384.951L153.096 385.148L152.898 385.345L152.7 385.542L152.502 385.739L152.305 385.935L152.107 386.132L151.909 386.329L151.711 386.526L151.513 386.723L151.316 386.919L151.118 387.116L150.92 387.313L150.722 387.51L150.524 387.707L150.327 387.903L150.129 388.1L149.931 388.297L149.733 388.494L149.535 388.691L149.338 388.887L149.14 389.084L148.942 389.281L148.744 389.478L148.546 389.675L148.349 389.871L148.151 390.068L147.953 390.265L147.755 390.462L147.557 390.659L147.36 390.855L147.162 391.052L146.964 391.249L146.766 391.446L146.568 391.643L146.371 391.839L146.173 392.036L145.975 392.233L145.777 392.43L138.433 399.737C137.805 399.228 137.205 398.752 136.63 398.297C134.963 396.975 133.51 395.823 132.213 394.533L132.213 394.532C110.94 373.434 89.603 352.271 68.398 331.042L68.3979 331.042C62.5474 325.188 59.7427 320.185 59.7744 315.246C59.8062 310.305 62.6777 305.266 68.596 299.345C75.2135 292.749 81.8261 286.151 88.438 279.553C117.074 250.979 145.695 222.42 174.622 194.121C177.955 190.868 183.904 188.61 188.674 188.611L188.678 188.61C240.469 188.216 292.193 188.15 343.983 188.545H343.987C348.409 188.545 353.967 190.856 357.182 193.925M461.687 332.815C468.717 325.789 472.112 320.427 472.151 315.19C472.191 309.956 468.881 304.663 461.952 297.769C454.974 290.827 448.002 283.882 441.031 276.939C413.153 249.171 385.294 221.422 357.182 193.925M461.687 332.815L357.182 193.925" stroke="#E0FF63"/>
<g clip-path="url(#clip5_123_2)">
<path d="M472.397 37.4365C475.552 40.6213 478.709 43.8085 481.884 46.9807H481.814L483.532 48.6896C487.336 52.4744 491.125 56.273 494.914 60.0712C504.009 69.188 513.101 78.3022 522.387 87.2156C525.853 90.5669 528.601 93.9272 529.992 97.5823C531.365 101.19 531.446 105.158 529.432 109.825C527.515 114.232 524.69 116.84 521.239 118.372C517.747 119.922 513.554 120.398 508.88 120.398C422.413 120.266 335.947 120.266 249.482 120.266H249.451H249.014H248.576H248.138H247.7H247.262H246.825H246.387H245.949H245.511H245.074H244.636H244.198H243.76H243.322H242.885H242.447H242.009H241.571H241.133H240.696H240.258H239.82H239.382H238.944H238.507H238.069H237.631H237.193H236.755H236.318H235.88H235.442H235.004H234.567H234.129H233.691H233.253H232.815H232.378H231.94H231.502H231.064H230.626H230.189H229.751H229.313H228.875H228.437H228H227.562H227.124H226.686H226.248H225.811H225.373H224.935H224.497H224.06H223.622H223.184H222.746H222.308H221.871H221.433H220.995H220.557H220.119H219.682H219.244H218.806H218.368H217.93H217.493H217.055H216.617H216.179H215.741H215.304H214.866H214.428H213.99H213.553H213.115H212.677H212.239H211.801H211.364H210.926H210.488H210.05H209.612H209.175H208.737H208.299H207.861H207.423H206.986H206.548H206.11H205.672H205.234H204.797H204.359H203.921H203.483H203.045H202.608H202.17H201.732H201.294H200.857H200.419H199.981H199.543H199.105H198.668H198.23H197.792H197.354H196.916H196.479H196.041H195.603H195.165H194.727H194.29H193.852H193.414H192.976H192.538H192.101H191.663H191.225H190.787H190.35H189.912H189.474H189.036H188.598H188.161H187.723H187.285H186.847H186.409H185.972H185.534H185.096H184.658H184.22H183.783H183.345H182.907H182.469H182.031H181.594H181.156H180.718H180.28H179.843H179.405H178.967H178.529H178.091H177.654H177.216H176.778H176.34H175.902H175.465H175.027H174.589H174.151H173.713H173.276H172.838H172.4H171.962H171.524H171.087H170.649H170.211H169.773H169.336H168.898H168.46H168.022H167.584H167.147H166.709H166.271H165.833H165.395H164.958H164.52H164.082H163.644H163.206H162.769H162.331H161.893H161.455H161.017H160.58H160.142H159.704H159.266H158.829H158.391H157.953H157.515H157.077H156.64H156.202H155.764H155.326H154.888H154.451H154.013H153.575H153.137H152.699H152.262H151.824H151.386H150.948H150.51H150.073H149.635H149.197H148.759H148.321H147.884H147.446H147.008H146.57H146.133H145.695H145.257H144.819H144.381H143.944H143.506H143.068H142.63H142.192H141.755H141.317H140.879H140.441H140.003H139.566H139.128H138.69H138.252H137.814H137.377H136.939H136.501H136.063H135.626H135.188H134.75H134.312H133.874H133.437H132.999H132.561H132.123H131.685H131.248H130.81H130.372H129.934H129.496H129.059H128.621H128.183H127.745H127.307H126.87H126.432H125.994H125.556H125.119H124.681H124.243H123.805H123.367H122.93H122.492H122.054H121.616H121.178H120.741H120.303H119.865H119.427H118.989H118.552H118.114H117.676H117.238H116.8H116.363H115.925H115.487H115.049H114.612H114.174H113.736H113.298H112.86H112.423H111.985H111.547H111.109H110.671H110.234H109.796H109.358H108.92H108.482H108.045H107.607H107.169H106.731H106.293H105.856H105.418H104.98H104.542H104.104H103.667H103.229H102.791H102.353H101.916H101.478H101.04H100.602H100.164H99.7266H99.2888H98.851H98.4132H97.9754H97.5376H97.0998H96.662H96.2242H95.7865H95.3487H94.9109H94.4731H94.0353H93.5975H93.1597H92.7219H92.2841H91.8463H91.4085H90.9707H90.533H90.0952H89.6574H89.2196H88.7818H88.344H87.9062H87.4684H87.0306H86.5928H86.155H85.7172H85.2794H84.8417H84.4039H83.9661H83.5283H83.0905H82.6527H82.2149H81.7771H81.3393H80.9015H80.4637H80.0259H79.5882H79.1504H78.7126H78.2748H77.837H77.3992H76.9614H76.5236H76.0858H75.648H75.2102H74.7724H74.3346H73.8969H73.4591H73.0213H72.5835H72.1457H71.7079H71.2701H70.8323H70.3945H69.9567H69.5189H69.0811H68.6433H68.2056H67.7678H67.33H66.8922H66.4544H66.0166H65.5788H65.141H64.7032H64.2654H63.8276H63.3898H62.9521H62.5143H62.0765H61.6387H61.2009H60.7631H60.3253H59.8875H59.4497H59.0119H58.5741H58.1363H57.6986H57.2608H56.823H56.3852H55.9474H55.5096H55.0718H54.634H54.1962H53.7584H53.3206H52.8828H52.445H52.0073H51.5695H51.1317H50.6939H50.2561H49.8183H49.3805H48.9427H48.5049H48.0671H47.6293H47.1915H46.7537H46.316H45.8782H45.4404H45.0026H44.5648H44.127H43.6892H43.2514H42.8136H42.3758H41.938H41.5002H41.0625H40.6247H40.1869H39.7491H39.3113H38.8735H38.4357H37.9979H37.5601H37.1223H36.6845H36.2467H35.8089H35.3712H34.9334H34.4956H34.0578H33.62H33.1822H32.7444H32.3066H31.8688H31.431H30.9932H30.5554H30.1177H29.6799H29.2421H28.8043H28.3665H27.9287H27.4909H27.0531H26.6153H26.1775H25.7397H25.3019C24.6275 120.266 23.9338 120.319 23.2705 120.377C23.1313 120.389 22.9939 120.401 22.858 120.413C22.3325 120.46 21.8298 120.505 21.3368 120.53C20.0669 120.595 19.1195 120.506 18.4647 120.135C17.3648 119.504 16.2542 118.901 15.147 118.3C13.3449 117.321 11.5519 116.347 9.82954 115.268C7.08211 113.545 4.71025 111.662 3.14131 109.336L3.13751 109.331C-0.735092 103.672 0.864435 96.4446 6.19133 91.0807C10.2463 87.0275 14.2996 82.972 18.3534 78.9161C42.7011 54.5551 67.0622 30.1808 91.8603 6.24087C93.5555 4.61534 96.0514 3.36245 98.8411 2.50905C101.619 1.65929 104.611 1.22935 107.227 1.19716C213.584 0.868547 319.874 0.868553 426.231 1.26291H426.234C431.666 1.26291 438.372 4.47102 442.602 8.36043L442.605 8.36347C452.834 17.6844 462.604 27.549 472.397 37.4365Z" fill="#2C2747" stroke="#E0FF63" stroke-width="2"/>
<path d="M461.333 332.463L393.897 399.557L386.708 392.404L336.071 342.024L285.434 291.644C277.97 284.218 272.064 280.2 266.001 280.147C259.93 280.094 254.068 284.016 246.7 291.314L246.698 291.316L246.5 291.513L246.303 291.709L246.105 291.906L245.907 292.103L245.709 292.3L245.511 292.497L245.314 292.693L245.116 292.89L244.918 293.087L244.72 293.284L244.522 293.481L244.325 293.677L244.127 293.874L243.929 294.071L243.731 294.268L243.533 294.465L243.336 294.661L243.138 294.858L242.94 295.055L242.742 295.252L242.544 295.449L242.347 295.645L242.149 295.842L241.951 296.039L241.753 296.236L241.555 296.433L241.358 296.629L241.16 296.826L240.962 297.023L240.764 297.22L240.566 297.417L240.369 297.613L240.171 297.81L239.973 298.007L239.775 298.204L239.577 298.401L239.38 298.597L239.182 298.794L238.984 298.991L238.786 299.188L238.588 299.384L238.391 299.581L238.193 299.778L237.995 299.975L237.797 300.172L237.599 300.368L237.402 300.565L237.204 300.762L237.006 300.959L236.808 301.156L236.61 301.352L236.413 301.549L236.215 301.746L236.017 301.943L235.819 302.14L235.621 302.336L235.424 302.533L235.226 302.73L235.028 302.927L234.83 303.124L234.632 303.32L234.435 303.517L234.237 303.714L234.039 303.911L233.841 304.108L233.643 304.304L233.446 304.501L233.248 304.698L233.05 304.895L232.852 305.092L232.654 305.288L232.457 305.485L232.259 305.682L232.061 305.879L231.863 306.076L231.665 306.272L231.468 306.469L231.27 306.666L231.072 306.863L230.874 307.06L230.676 307.256L230.479 307.453L230.281 307.65L230.083 307.847L229.885 308.043L229.687 308.24L229.49 308.437L229.292 308.634L229.094 308.831L228.896 309.027L228.698 309.224L228.501 309.421L228.303 309.618L228.105 309.815L227.907 310.011L227.709 310.208L227.512 310.405L227.314 310.602L227.116 310.799L226.918 310.995L226.72 311.192L226.523 311.389L226.325 311.586L226.127 311.783L225.929 311.979L225.731 312.176L225.534 312.373L225.336 312.57L225.138 312.767L224.94 312.963L224.742 313.16L224.545 313.357L224.347 313.554L224.149 313.751L223.951 313.947L223.753 314.144L223.556 314.341L223.358 314.538L223.16 314.735L222.962 314.931L222.764 315.128L222.567 315.325L222.369 315.522L222.171 315.719L221.973 315.915L221.775 316.112L221.578 316.309L221.38 316.506L221.182 316.702L220.984 316.899L220.786 317.096L220.589 317.293L220.391 317.49L220.193 317.686L219.995 317.883L219.797 318.08L219.6 318.277L219.402 318.474L219.204 318.67L219.006 318.867L218.808 319.064L218.611 319.261L218.413 319.458L218.215 319.654L218.017 319.851L217.819 320.048L217.622 320.245L217.424 320.442L217.226 320.638L217.028 320.835L216.83 321.032L216.633 321.229L216.435 321.426L216.237 321.622L216.039 321.819L215.841 322.016L215.644 322.213L215.446 322.41L215.248 322.606L215.05 322.803L214.852 323L214.655 323.197L214.457 323.394L214.259 323.59L214.061 323.787L213.863 323.984L213.666 324.181L213.468 324.378L213.27 324.574L213.072 324.771L212.874 324.968L212.677 325.165L212.479 325.362L212.281 325.558L212.083 325.755L211.885 325.952L211.688 326.149L211.49 326.345L211.292 326.542L211.094 326.739L210.896 326.936L210.699 327.133L210.501 327.329L210.303 327.526L210.105 327.723L209.907 327.92L209.71 328.117L209.512 328.313L209.314 328.51L209.116 328.707L208.918 328.904L208.721 329.101L208.523 329.297L208.325 329.494L208.127 329.691L207.929 329.888L207.732 330.085L207.534 330.281L207.336 330.478L207.138 330.675L206.94 330.872L206.743 331.069L206.545 331.265L206.347 331.462L206.149 331.659L205.951 331.856L205.754 332.053L205.556 332.249L205.358 332.446L205.16 332.643L204.962 332.84L204.765 333.037L204.567 333.233L204.369 333.43L204.171 333.627L203.973 333.824L203.776 334.021L203.578 334.217L203.38 334.414L203.182 334.611L202.984 334.808L202.787 335.004L202.589 335.201L202.391 335.398L202.193 335.595L201.995 335.792L201.798 335.988L201.6 336.185L201.402 336.382L201.204 336.579L201.006 336.776L200.809 336.972L200.611 337.169L200.413 337.366L200.215 337.563L200.017 337.76L199.82 337.956L199.622 338.153L199.424 338.35L199.226 338.547L199.028 338.744L198.831 338.94L198.633 339.137L198.435 339.334L198.237 339.531L198.039 339.728L197.842 339.924L197.644 340.121L197.446 340.318L197.248 340.515L197.05 340.712L196.853 340.908L196.655 341.105L196.457 341.302L196.259 341.499L196.061 341.696L195.864 341.892L195.666 342.089L195.468 342.286L195.27 342.483L195.072 342.68L194.875 342.876L194.677 343.073L194.479 343.27L194.281 343.467L194.083 343.663L193.886 343.86L193.688 344.057L193.49 344.254L193.292 344.451L193.094 344.647L192.897 344.844L192.699 345.041L192.501 345.238L192.303 345.435L192.105 345.631L191.908 345.828L191.71 346.025L191.512 346.222L191.314 346.419L191.116 346.615L190.919 346.812L190.721 347.009L190.523 347.206L190.325 347.403L190.127 347.599L189.93 347.796L189.732 347.993L189.534 348.19L189.336 348.387L189.138 348.583L188.941 348.78L188.743 348.977L188.545 349.174L188.347 349.371L188.149 349.567L187.952 349.764L187.754 349.961L187.556 350.158L187.358 350.355L187.16 350.551L186.963 350.748L186.765 350.945L186.567 351.142L186.369 351.339L186.171 351.535L185.974 351.732L185.776 351.929L185.578 352.126L185.38 352.323L185.182 352.519L184.985 352.716L184.787 352.913L184.589 353.11L184.391 353.306L184.193 353.503L183.996 353.7L183.798 353.897L183.6 354.094L183.402 354.29L183.204 354.487L183.007 354.684L182.809 354.881L182.611 355.078L182.413 355.274L182.215 355.471L182.018 355.668L181.82 355.865L181.622 356.062L181.424 356.258L181.226 356.455L181.029 356.652L180.831 356.849L180.633 357.046L180.435 357.242L180.237 357.439L180.04 357.636L179.842 357.833L179.644 358.03L179.446 358.226L179.248 358.423L179.051 358.62L178.853 358.817L178.655 359.014L178.457 359.21L178.259 359.407L178.062 359.604L177.864 359.801L177.666 359.998L177.468 360.194L177.27 360.391L177.073 360.588L176.875 360.785L176.677 360.982L176.479 361.178L176.281 361.375L176.084 361.572L175.886 361.769L175.688 361.965L175.49 362.162L175.292 362.359L175.095 362.556L174.897 362.753L174.699 362.949L174.501 363.146L174.303 363.343L174.106 363.54L173.908 363.737L173.71 363.933L173.512 364.13L173.314 364.327L173.117 364.524L172.919 364.721L172.721 364.917L172.523 365.114L172.325 365.311L172.128 365.508L171.93 365.705L171.732 365.901L171.534 366.098L171.336 366.295L171.139 366.492L170.941 366.689L170.743 366.885L170.545 367.082L170.347 367.279L170.15 367.476L169.952 367.673L169.754 367.869L169.556 368.066L169.358 368.263L169.161 368.46L168.963 368.657L168.765 368.853L168.567 369.05L168.369 369.247L168.172 369.444L167.974 369.641L167.776 369.837L167.578 370.034L167.38 370.231L167.183 370.428L166.985 370.625L166.787 370.821L166.589 371.018L166.391 371.215L166.194 371.412L165.996 371.608L165.798 371.805L165.6 372.002L165.402 372.199L165.205 372.396L165.007 372.592L164.809 372.789L164.611 372.986L164.413 373.183L164.216 373.38L164.018 373.576L163.82 373.773L163.622 373.97L163.424 374.167L163.227 374.364L163.029 374.56L162.831 374.757L162.633 374.954L162.435 375.151L162.238 375.348L162.04 375.544L161.842 375.741L161.644 375.938L161.446 376.135L161.249 376.332L161.051 376.528L160.853 376.725L160.655 376.922L160.457 377.119L160.26 377.316L160.062 377.512L159.864 377.709L159.666 377.906L159.468 378.103L159.271 378.3L159.073 378.496L158.875 378.693L158.677 378.89L158.479 379.087L158.282 379.284L158.084 379.48L157.886 379.677L157.688 379.874L157.49 380.071L157.293 380.267L157.095 380.464L156.897 380.661L156.699 380.858L156.501 381.055L156.304 381.251L156.106 381.448L155.908 381.645L155.71 381.842L155.512 382.039L155.315 382.235L155.117 382.432L154.919 382.629L154.721 382.826L154.523 383.023L154.326 383.219L154.128 383.416L153.93 383.613L153.732 383.81L153.534 384.007L153.337 384.203L153.139 384.4L152.941 384.597L152.743 384.794L152.545 384.991L152.348 385.187L152.15 385.384L151.952 385.581L151.754 385.778L151.556 385.975L151.359 386.171L151.161 386.368L150.963 386.565L150.765 386.762L150.567 386.959L150.37 387.155L150.172 387.352L149.974 387.549L149.776 387.746L149.578 387.943L149.381 388.139L149.183 388.336L148.985 388.533L148.787 388.73L148.589 388.926L148.392 389.123L148.194 389.32L147.996 389.517L147.798 389.714L147.6 389.91L147.403 390.107L147.205 390.304L147.007 390.501L146.809 390.698L146.611 390.894L146.414 391.091L146.216 391.288L146.018 391.485L145.82 391.682L145.622 391.878L145.425 392.075L138.398 399.066C137.884 398.652 137.391 398.262 136.918 397.886C135.262 396.574 133.842 395.448 132.566 394.179L132.565 394.177C111.292 373.079 89.9558 351.916 68.7517 330.688L68.7515 330.688C62.93 324.864 60.244 319.984 60.2744 315.249C60.3049 310.51 63.0582 305.593 68.9488 299.7C75.5662 293.104 82.1787 286.505 88.7902 279.908C117.427 251.333 146.047 222.776 174.972 194.478C178.204 191.324 184.023 189.11 188.674 189.111L188.682 189.11C240.47 188.716 292.192 188.65 343.979 189.045H343.987C348.275 189.045 353.709 191.302 356.835 194.286C384.945 221.78 412.801 249.526 440.678 277.293C447.649 284.236 454.621 291.181 461.599 298.123C468.521 305.01 471.689 310.173 471.651 315.186C471.613 320.206 468.358 325.441 461.333 332.463Z" fill="#2C2747" stroke="#E0FF63" stroke-width="2"/>
</g>
</g>
<defs>
<clipPath id="clip0_123_2">
<rect width="532" height="401" fill="white" transform="translate(0 44)"/>
</clipPath>
<clipPath id="clip1_123_2">
<rect width="532" height="401" fill="white" transform="translate(0 33)"/>
</clipPath>
<clipPath id="clip2_123_2">
<rect width="532" height="401" fill="white" transform="translate(0 11)"/>
</clipPath>
<clipPath id="clip3_123_2">
<rect width="532" height="401" fill="white" transform="translate(0 21)"/>
</clipPath>
<clipPath id="clip4_123_2">
<rect width="532" height="401" fill="white"/>
</clipPath>
<clipPath id="clip5_123_2">
<rect width="532" height="401" fill="white"/>
</clipPath>
</defs>
</svg>
