<svg width="1282" height="117" viewBox="0 0 1282 117" fill="none" xmlns="http://www.w3.org/2000/svg">
<path d="M50.6036 114.333V23.8686H0.365234V1.93228H125.903V23.8455H75.6416V114.31H50.6036V114.333Z" fill="white" fill-opacity="0.9"/>
<path d="M188.549 114.333L150.168 1.93228H177.341L200.082 74.2391C200.523 75.322 200.987 76.8198 201.474 78.7323C201.961 80.6448 202.495 82.6265 203.029 84.7003C203.586 86.7741 204.027 88.6175 204.351 90.2535H205.349C205.558 88.9401 205.86 87.5345 206.254 85.9906C206.649 84.4468 206.997 82.9491 207.322 81.4052C207.646 79.8844 207.971 78.4788 208.319 77.2346C208.668 75.9903 208.923 74.9764 209.132 74.216L230.248 1.93228H264.684L285.94 74.2391C286.264 75.322 286.682 76.8198 287.169 78.7323C287.657 80.6448 288.167 82.6265 288.654 84.7003C289.142 86.7741 289.513 88.6175 289.722 90.2535H290.72C291.045 89.0553 291.393 87.7188 291.787 86.2441C292.182 84.7694 292.576 83.2947 293.017 81.82C293.458 80.3453 293.829 78.9627 294.177 77.6493C294.502 76.3359 294.827 75.2068 295.175 74.216L318.055 1.93228H342.606L304.062 114.333H273.409L250.831 40.7125C250.39 39.1917 249.902 37.4174 249.346 35.3897C248.789 33.362 248.325 31.3573 247.953 29.3296C247.559 27.3019 247.257 25.5507 247.048 24.0068H246.236C246.004 25.6428 245.633 27.5323 245.076 29.6522C244.519 31.7721 244.008 33.8228 243.521 35.7814C243.034 37.74 242.547 39.376 242.129 40.6894L220.386 114.31H188.595L188.549 114.333Z" fill="white" fill-opacity="0.9"/>
<path d="M368.704 114.333V1.93228H393.742V114.333H368.704Z" fill="white" fill-opacity="0.9"/>
<path d="M428.649 114.333V1.93228H452.202L514.158 60.9897C515.574 62.1879 517.291 63.8239 519.263 65.8977C521.236 67.9715 523.301 70.0914 525.436 72.2805C527.571 74.4695 529.404 76.4281 530.959 78.1793H532.281C532.165 75.7829 532.026 72.8565 531.864 69.4232C531.701 65.9899 531.608 63.1787 531.608 60.9897V1.93228H555.672V114.333H532.606L470.487 54.607C467.517 51.7728 464.407 48.639 461.182 45.2057C457.933 41.7724 455.334 39.0074 453.362 36.9336H452.202C452.318 38.3622 452.41 40.8277 452.526 44.3762C452.642 47.9247 452.689 51.9802 452.689 56.5656V114.31H428.625L428.649 114.333Z" fill="white" fill-opacity="0.9"/>
<path d="M630.687 114.333L576.666 1.93228H604.674L634.167 65.4138C635.49 68.1328 636.813 71.0592 638.112 74.1699C639.435 77.2806 640.688 80.2531 641.895 83.0873C643.101 85.9215 644.099 88.3179 644.865 90.2765H646.188C646.953 88.4331 647.928 86.1058 649.065 83.3177C650.202 80.5296 651.478 77.5802 652.847 74.4925C654.216 71.3818 655.562 68.4093 656.885 65.5751L686.541 1.93228H713.064L659.02 114.333H630.687Z" fill="white" fill-opacity="0.9"/>
<path d="M732.637 114.333V1.93228H847.13V22.7164H757.675V46.7726H837.245V67.5568H757.675V93.5716H848.453V114.356H732.637V114.333Z" fill="white" fill-opacity="0.9"/>
<path d="M875.414 114.333V1.93228H965.031C973.037 1.93228 979.604 3.54524 984.709 6.74813C989.814 9.97405 993.643 14.2138 996.149 19.5136C998.678 24.8133 999.931 30.666 999.931 37.0948C999.931 43.5237 998.191 49.9985 994.733 55.8282C991.276 61.658 985.915 66.2203 978.675 69.4923L1002.74 114.31H974.568L953.8 74.2391H900.429V114.31H875.391L875.414 114.333ZM900.452 53.6392H958.116C963.268 53.6392 967.259 52.1415 970.066 49.146C972.874 46.1505 974.267 42.3024 974.267 37.6248C974.267 34.468 973.663 31.7721 972.457 29.537C971.25 27.3019 969.44 25.6198 967.027 24.4677C964.613 23.3155 961.643 22.7395 958.139 22.7395H900.475V53.6623L900.452 53.6392Z" fill="white" fill-opacity="0.9"/>
<path d="M1084.88 116.291C1076.32 116.291 1068.29 115.784 1060.81 114.747C1053.34 113.711 1046.8 111.867 1041.21 109.194C1035.61 106.521 1031.23 102.788 1028.12 97.9957C1025.01 93.2029 1023.43 87.0275 1023.43 79.5158V78.7093C1023.43 78.3867 1023.48 78.1102 1023.59 77.8798H1048.31C1048.19 78.3176 1048.12 78.8475 1048.05 79.4236C1048.01 80.0227 1047.96 80.714 1047.96 81.4743C1047.96 84.8616 1049.44 87.6036 1052.41 89.7465C1055.38 91.8895 1059.61 93.4333 1065.11 94.4011C1070.61 95.3919 1077.03 95.8758 1084.39 95.8758C1087.57 95.8758 1090.79 95.7375 1094.02 95.461C1097.27 95.1845 1100.36 94.7928 1103.33 94.2398C1106.3 93.6868 1108.96 92.9264 1111.31 91.9586C1113.67 90.9678 1115.53 89.7465 1116.9 88.2718C1118.27 86.7971 1118.97 85.092 1118.97 83.1104C1118.97 80.2762 1117.67 78.018 1115.09 76.3129C1112.51 74.6308 1109.01 73.2252 1104.62 72.1422C1100.24 71.0592 1095.3 70.1145 1089.8 69.3541C1084.3 68.5937 1078.61 67.7411 1072.74 66.8194C1066.87 65.8978 1061.19 64.6304 1055.69 63.0635C1050.19 61.4736 1045.24 59.4459 1040.86 56.9343C1036.47 54.4227 1032.97 51.1737 1030.39 47.2104C1027.82 43.2241 1026.52 38.3622 1026.52 32.5786C1026.52 27.348 1027.77 22.7165 1030.3 18.661C1032.83 14.6286 1036.57 11.2183 1041.51 8.43022C1046.45 5.6421 1052.51 3.54525 1059.72 2.13967C1066.92 0.734087 1075.18 0.0197754 1084.53 0.0197754C1093.88 0.0197754 1102.21 0.780172 1109.24 2.30096C1116.27 3.82176 1122.1 6.01078 1126.72 8.84498C1131.33 11.6792 1134.77 15.0894 1137.02 19.0758C1139.27 23.0621 1140.41 27.5093 1140.41 32.4173V35.0441H1116.02V32.9242C1116.02 30.5278 1114.7 28.4079 1112.07 26.5415C1109.43 24.6981 1105.88 23.2234 1101.35 22.1174C1096.85 21.0344 1091.75 20.4813 1086.04 20.4813C1078.13 20.4813 1071.7 20.9652 1066.75 21.9561C1061.81 22.9469 1058.19 24.2833 1055.87 25.9654C1053.57 27.6706 1052.41 29.537 1052.41 31.6108C1052.41 34.1224 1053.71 36.1271 1056.29 37.6709C1058.87 39.1917 1062.35 40.436 1066.75 41.3577C1071.14 42.2794 1076.08 43.1319 1081.58 43.8923C1087.08 44.6527 1092.77 45.5283 1098.64 46.5192C1104.51 47.51 1110.19 48.7543 1115.69 50.2751C1121.19 51.7959 1126.14 53.8466 1130.52 56.4043C1134.91 58.962 1138.41 62.1879 1140.99 66.059C1143.56 69.9302 1144.86 74.6999 1144.86 80.3683C1144.86 89.1014 1142.33 96.1062 1137.27 101.383C1132.22 106.683 1125.18 110.485 1116.18 112.835C1107.18 115.185 1096.74 116.36 1084.88 116.36V116.291Z" fill="white" fill-opacity="0.9"/>
<path d="M1166.18 114.333V1.93228H1280.68V22.7164H1191.22V46.7726H1270.79V67.5568H1191.22V93.5716H1282V114.356H1166.18V114.333Z" fill="white" fill-opacity="0.9"/>
</svg>
